<svg xmlns="http://www.w3.org/2000/svg" xmlns:xlink="http://www.w3.org/1999/xlink" width="78.185" height="78.177" viewBox="0 0 78.185 78.177">
  <defs>
    <filter id="Caminho_466" x="0" y="0" width="78.185" height="78.177" filterUnits="userSpaceOnUse">
      <feOffset dy="3" input="SourceAlpha"/>
      <feGaussianBlur stdDeviation="3" result="blur"/>
      <feFlood flood-opacity="0.161"/>
      <feComposite operator="in" in2="blur"/>
      <feComposite in="SourceGraphic"/>
    </filter>
  </defs>
  <g id="Grupo_1579" data-name="Grupo 1579" transform="translate(8178 -3235)">
    <g id="Grupo_1578" data-name="Grupo 1578" transform="translate(-6393.815 4199.178) rotate(180)">
      <g id="Grupo_1005" data-name="Grupo 1005" transform="translate(1715 898)">
        <g transform="matrix(-1, 0, 0, -1, 69.18, 66.18)" filter="url(#Caminho_466)">
          <path id="Caminho_466-2" data-name="Caminho 466" d="M36.472,10.309c-1.733.041-3,.1-5.334.246-1.078.064-2.254.159-3.083.242-.208.023-.643.064-.964.095-1.35.132-3.355.386-4.2.529-.178.03-.439.072-.586.095s-.4.064-.568.095-.446.083-.624.113c-.624.106-1.687.322-2.288.466-.167.042-.466.113-.662.159s-.374.087-.4.091a7.817,7.817,0,0,0-3.057,1.49,6.589,6.589,0,0,0-1.933,2.825c-.06.166-.121.337-.14.378-.064.144-.344,1.354-.545,2.345-.03.166-.083.412-.113.548s-.072.374-.1.529-.053.344-.072.416c-.057.216-.287,1.691-.435,2.761-.144,1.037-.238,1.789-.321,2.553-.042.374-.083.741-.091.813s-.046.439-.079.813-.075.832-.1,1.021c-.079.7-.276,3.726-.374,5.863-.076,1.584-.125,4.977-.1,6.827.026,2.307.083,4.369.136,5.087.019.291.057.9.079,1.362s.053,1.044.072,1.3c.087,1.309.155,2.167.189,2.439.019.167.064.609.095.98s.076.813.095.984.064.537.094.817c.095.9.167,1.482.227,1.872.03.208.083.564.113.794.11.832.238,1.641.378,2.383.03.166.079.446.114.624.064.378.212,1.131.318,1.607a10.006,10.006,0,0,0,.949,2.988,6.4,6.4,0,0,0,.337.586c.064.095.159.231.208.3a6.485,6.485,0,0,0,1.173,1.192c.056.041.166.121.238.178a.584.584,0,0,0,.167.106.194.194,0,0,1,.083.057,7.843,7.843,0,0,0,1.634.772c.083.026.185.06.227.079.1.045.654.185,1.324.337.291.068.59.14.662.159.174.045,1.271.264,2.1.416.476.087,1.4.234,1.986.318.219.03.5.072.624.094.458.079,2.349.3,3.537.413.427.042.953.091,1.172.113.356.038.719.068,2.459.193.261.019.855.053,1.324.076s1.123.057,1.456.076c2.693.155,10.394.155,13.049,0,.333-.023.987-.053,1.456-.076.805-.038,1.1-.057,2.364-.152,1.619-.125,4-.356,4.8-.469.231-.034.628-.087.889-.121.964-.125,2.288-.325,3.045-.465.829-.152,1.925-.371,2.1-.416.072-.019.37-.091.662-.159.654-.148,1.222-.291,1.324-.337q.189-.068.378-.132a10.462,10.462,0,0,0,1.426-.673,1.094,1.094,0,0,1,.166-.121,4.2,4.2,0,0,0,.7-.533,7.459,7.459,0,0,0,.825-.885c.034-.053.125-.181.2-.284a1.248,1.248,0,0,0,.144-.216,1.52,1.52,0,0,1,.132-.235,2.514,2.514,0,0,0,.193-.371,1.94,1.94,0,0,1,.091-.2,8.271,8.271,0,0,0,.45-1.275c.178-.662.511-2.224.632-2.962.03-.189.064-.366.076-.4.034-.083.242-1.381.431-2.7.042-.291.083-.583.095-.643.031-.174.166-1.335.227-1.948.03-.3.072-.651.094-.776s.064-.533.095-.908.072-.836.091-1.021.057-.62.079-.964.057-.768.076-.946.064-.832.095-1.456.072-1.392.095-1.7c.17-2.75.17-9.967,0-12.8-.019-.322-.053-.953-.076-1.4s-.057-1.037-.076-1.305-.072-.942-.113-1.494-.083-1.071-.095-1.154-.045-.45-.075-.813-.064-.7-.076-.756-.053-.4-.095-.776c-.1-.9-.219-1.9-.246-2.02-.011-.053-.053-.356-.095-.666-.185-1.414-.529-3.385-.825-4.728-.042-.189-.109-.5-.151-.681a10.2,10.2,0,0,0-.272-1.059c-.019-.042-.053-.144-.079-.227a9.95,9.95,0,0,0-.609-1.362c-.015-.023-.136-.2-.265-.4a7.488,7.488,0,0,0-1.369-1.426,7.843,7.843,0,0,0-2.9-1.3q-.3-.074-.605-.152c-.14-.041-.42-.1-1.021-.227l-.511-.11c-.73-.178-3.106-.564-4.652-.76-.311-.038-.617-.079-.681-.094-.114-.023-.662-.079-1.778-.189-.311-.03-.738-.076-.946-.095s-.583-.057-.832-.079-.658-.053-.908-.072c-.847-.072-3.2-.208-4.5-.265-2.516-.11-7.16-.144-10.042-.072Z" transform="translate(79.49 76.45) rotate(180)" fill="#fff"/>
        </g>
        <g id="Grupo_1004" data-name="Grupo 1004" transform="translate(4.746 4.746)">
          <path id="Caminho_465" data-name="Caminho 465" d="M32.146,10.3c-1.446.034-2.507.085-4.452.205-.9.054-1.881.133-2.573.2-.174.019-.537.054-.8.079-1.127.111-2.8.322-3.5.442-.149.025-.366.06-.489.079s-.335.054-.474.079-.373.07-.521.095c-.521.088-1.408.269-1.91.389-.139.035-.389.095-.553.133s-.312.072-.331.076a6.525,6.525,0,0,0-2.551,1.244,5.5,5.5,0,0,0-1.613,2.358c-.05.139-.1.281-.117.316-.054.12-.287,1.13-.455,1.958-.025.139-.069.344-.095.458s-.06.312-.082.442-.044.287-.06.347c-.047.18-.24,1.411-.363,2.3-.12.865-.2,1.494-.268,2.131-.035.312-.07.619-.076.679s-.038.366-.066.679-.063.694-.082.852c-.066.581-.231,3.11-.312,4.894-.063,1.322-.1,4.155-.082,5.7.022,1.926.069,3.647.113,4.246.016.243.047.755.066,1.137s.044.871.06,1.089c.073,1.092.129,1.809.158,2.036.016.139.054.509.079.818s.063.679.079.821.054.448.079.682c.079.748.139,1.237.19,1.563.025.174.07.47.095.663.092.694.2,1.37.316,1.989.025.139.066.373.095.521.054.316.177.944.265,1.342a8.352,8.352,0,0,0,.792,2.494,5.344,5.344,0,0,0,.281.489c.054.079.133.192.174.253a5.413,5.413,0,0,0,.979.995c.047.034.139.1.2.148a.488.488,0,0,0,.139.088.162.162,0,0,1,.069.048,6.546,6.546,0,0,0,1.364.644c.07.022.155.05.19.066.082.038.546.154,1.105.281.243.057.493.117.552.133.145.038,1.061.221,1.752.347.4.072,1.171.2,1.657.265.183.025.417.06.521.079.382.066,1.961.25,2.952.344.357.035.8.076.979.095.3.032.6.057,2.052.161.218.016.714.044,1.105.063s.938.047,1.216.063c2.248.129,8.676.129,10.892,0,.278-.019.824-.044,1.216-.063.672-.031.919-.047,1.973-.127,1.351-.1,3.337-.3,4.01-.391.192-.028.524-.073.742-.1.8-.1,1.91-.271,2.541-.388.692-.127,1.607-.31,1.752-.347.06-.016.309-.076.552-.133.546-.123,1.02-.243,1.1-.281q.157-.057.316-.111a8.733,8.733,0,0,0,1.19-.562.912.912,0,0,1,.139-.1A3.505,3.505,0,0,0,57,57.353a6.226,6.226,0,0,0,.688-.739c.028-.044.1-.151.167-.237a1.041,1.041,0,0,0,.12-.18,1.269,1.269,0,0,1,.11-.2,2.1,2.1,0,0,0,.161-.31,1.621,1.621,0,0,1,.076-.167,6.9,6.9,0,0,0,.375-1.064c.149-.552.426-1.856.527-2.472.025-.158.054-.306.063-.331.029-.07.2-1.153.36-2.257.035-.243.07-.486.079-.537.025-.145.139-1.115.19-1.626.025-.253.06-.543.079-.647s.054-.445.079-.758.06-.7.076-.852.047-.517.066-.8.047-.641.063-.789.054-.695.079-1.215.06-1.162.079-1.421c.142-2.3.142-8.319,0-10.687-.016-.269-.044-.8-.063-1.168s-.047-.865-.063-1.089-.06-.786-.095-1.247-.07-.894-.079-.963-.038-.376-.063-.679-.054-.587-.063-.631-.044-.335-.079-.647c-.082-.755-.183-1.588-.205-1.686-.009-.044-.044-.3-.079-.556-.155-1.18-.442-2.826-.688-3.946-.035-.158-.091-.414-.126-.568A8.512,8.512,0,0,0,58.6,16c-.016-.035-.044-.12-.066-.19a8.306,8.306,0,0,0-.508-1.137c-.013-.019-.113-.167-.221-.331a6.25,6.25,0,0,0-1.143-1.19,6.546,6.546,0,0,0-2.418-1.083q-.253-.062-.505-.127c-.117-.034-.351-.085-.853-.189l-.426-.092c-.609-.148-2.592-.47-3.883-.635-.259-.032-.515-.066-.568-.079-.095-.019-.553-.066-1.484-.158-.259-.025-.616-.063-.789-.079s-.486-.047-.694-.066l-.758-.06c-.707-.06-2.671-.174-3.757-.221-2.1-.092-5.977-.12-8.382-.06Z" transform="translate(-10.305 -10.271)" fill="#E48A33"/>
        </g>
      </g>
    </g>
    <path id="União_44" data-name="União 44" d="M12.525,28.366v-9.21H3.316a3.316,3.316,0,1,1,0-6.631h9.21V3.316a3.316,3.316,0,1,1,6.631,0v9.21h9.21a3.316,3.316,0,0,1,0,6.631h-9.21v9.21a3.316,3.316,0,0,1-6.631,0Z" transform="translate(-8138.598 3249) rotate(45)" fill="#fff"/>
  </g>
</svg>
