<svg id="Fit_escola_color" xmlns="http://www.w3.org/2000/svg" width="119.993" height="43.615" viewBox="0 0 119.993 43.615">
  <g id="Layer_1" transform="translate(0 0)">
    <g id="Grupo_1533" data-name="Grupo 1533">
      <g id="Grupo_1532" data-name="Grupo 1532" transform="translate(0 0.15)">
        <g id="Grupo_1530" data-name="Grupo 1530">
          <path id="Caminho_787" data-name="Caminho 787" d="M135.216,47.847a43.108,43.108,0,0,1,6.444.423,3.5,3.5,0,0,1,3.126,2.691,53.549,53.549,0,0,1,1.938,11.3c.009.129.024.3.03.429h6.222A74.557,74.557,0,0,0,151.458,47.4a4.908,4.908,0,0,0-4.092-4.092,57.1,57.1,0,0,0-9.888-1.335c-.015,0-1.2-.06-1.227-.06l-1.041,5.94Z" transform="translate(-109.746 -41.766)" fill="#fff"/>
          <path id="Caminho_788" data-name="Caminho 788" d="M56.612,64.638h0c-.015-.147-.024-.285-.03-.429A53.533,53.533,0,0,1,56.8,52.758,3.5,3.5,0,0,1,59.5,49.632a50.958,50.958,0,0,1,11.3-1.932c.936-.069,1.854-.123,2.727-.162l1.059-6.069c-.858-.024-1.731-.039-2.637-.039a71.687,71.687,0,0,0-16.011,1.509,4.905,4.905,0,0,0-4.092,4.092A75.982,75.982,0,0,0,50.33,63.057c0,.9.039,2.667.039,2.667h0l6.246-1.089Z" transform="translate(-50.33 -41.43)" fill="#fff"/>
          <path id="Caminho_789" data-name="Caminho 789" d="M70.067,137.953a43.335,43.335,0,0,1-8.1-.39,3.5,3.5,0,0,1-3.126-2.691,46.448,46.448,0,0,1-1.662-8.622l-6.369,1.119a69.219,69.219,0,0,0,1.371,11.076,4.908,4.908,0,0,0,4.092,4.092,66.508,66.508,0,0,0,13.8,1.488l-.009-6.069h0Z" transform="translate(-50.666 -100.804)" fill="#fff"/>
          <g id="Grupo_1528" data-name="Grupo 1528" transform="translate(21.405 31.272)">
            <path id="Caminho_790" data-name="Caminho 790" d="M124.8,158.641l.009-8.322h-2.436l-.009,8.322Zm2.115-6.408V155.8c0,2.022,1.059,3.036,2.934,3.036a5.889,5.889,0,0,0,1.509-.162v-1.863a3.8,3.8,0,0,1-.867.093c-.783,0-1.143-.384-1.134-1.266v-3.4h2.115V150.34h-2.115v-2.52l-2.436.429v2.085H125.7v1.893l1.212.009Zm8.208,6.624a2.561,2.561,0,0,0,2.184-1.074l.03.867h2.277v-4.89c0-2.376-1.326-3.639-3.7-3.639a8.882,8.882,0,0,0-3.21.558v1.953a8.029,8.029,0,0,1,2.82-.591c1.119,0,1.746.513,1.746,1.41-.192-.015-.513-.03-.819-.03-2.568,0-4.185,1.059-4.185,2.865a2.545,2.545,0,0,0,2.859,2.568Zm1.566-3.924c.192,0,.5.015.612.03v.66a1.4,1.4,0,0,1-1.449,1.488c-.75,0-1.218-.336-1.218-1.011,0-.765.735-1.164,2.055-1.164Zm6.936,3.93a2.577,2.577,0,0,0,2.247-1.1l.03.9h2.337l.009-8.322h-2.436v4.905c0,1.011-.5,1.647-1.317,1.647s-1.233-.543-1.233-1.557v-5h-2.436v5.4c0,1.917,1.1,3.135,2.805,3.135Zm3.072-9.648V147.1l-4.053.72v1.395Z" transform="translate(-122.156 -146.671)" fill="#fff"/>
            <path id="Caminho_791" data-name="Caminho 791" d="M123.111,148.46a1.368,1.368,0,0,0,1.449-1.4,1.441,1.441,0,1,0-1.446,1.4Z" transform="translate(-121.68 -145.67)" fill="#fff"/>
          </g>
          <g id="Grupo_1529" data-name="Grupo 1529" transform="translate(9.678 23.157)">
            <path id="Caminho_792" data-name="Caminho 792" d="M116.822,124.59a1.47,1.47,0,0,0-1.266.612l-.015-.5H114.23v4.638H115.6v-2.727c0-.558.276-.921.735-.921s.69.306.69.867v2.79H118.4v-3.012a1.566,1.566,0,0,0-1.578-1.746Z" transform="translate(-104.738 -122.799)" fill="#fff"/>
            <path id="Caminho_793" data-name="Caminho 793" d="M98.835,129.731a1.45,1.45,0,0,0,1.257-.612l.015.5h1.311l.009-4.638h-1.371v2.727c0,.558-.276.921-.735.921s-.69-.306-.69-.867v-2.79H97.26v3.012a1.557,1.557,0,0,0,1.578,1.746Z" transform="translate(-92.859 -123.065)" fill="#fff"/>
            <path id="Caminho_794" data-name="Caminho 794" d="M83.961,126.474H82.59V120.48h3.864v1.158h-2.49v1.386H86.01v1.158H83.97v2.292h-.009Z" transform="translate(-82.59 -119.922)" fill="#fff"/>
            <path id="Caminho_795" data-name="Caminho 795" d="M132.6,125.643a1.76,1.76,0,0,1-1.005-.291,1.9,1.9,0,0,1-.675-.834,3.591,3.591,0,0,1,.009-2.589,2,2,0,0,1,.681-.852,1.69,1.69,0,0,1,1.011-.3,1.523,1.523,0,0,1,1.2.522V119.13h1.365v6.393h-1.242l-.015-.558a1.361,1.361,0,0,1-.543.5,1.659,1.659,0,0,1-.789.183Zm.354-1.089a.744.744,0,0,0,.66-.354,1.7,1.7,0,0,0,.237-.981,1.785,1.785,0,0,0-.237-1,.792.792,0,0,0-1.32,0,1.714,1.714,0,0,0-.237.981,1.785,1.785,0,0,0,.237,1A.775.775,0,0,0,132.951,124.554Z" transform="translate(-116.253 -118.977)" fill="#fff"/>
            <path id="Caminho_796" data-name="Caminho 796" d="M166.017,129.465a2.6,2.6,0,0,1-1.257-.291,1.967,1.967,0,0,1-.819-.843,2.762,2.762,0,0,1-.291-1.3,2.538,2.538,0,0,1,.306-1.281,2.207,2.207,0,0,1,.843-.858,2.486,2.486,0,0,1,1.257-.306,2.718,2.718,0,0,1,.627.078,1.515,1.515,0,0,1,.483.207v1.089a1.528,1.528,0,0,0-.942-.285,1.119,1.119,0,0,0-.882.354,1.379,1.379,0,0,0-.315.981,1.406,1.406,0,0,0,.33.99,1.118,1.118,0,0,0,.882.369,1.574,1.574,0,0,0,.99-.3v1.08a1.734,1.734,0,0,1-.522.231,2.56,2.56,0,0,1-.69.084Zm-.567-.2h.75l-.168.582a1.059,1.059,0,0,1,.675.276.777.777,0,0,1,.252.582.867.867,0,0,1-.36.735,1.7,1.7,0,0,1-1.026.261,2.639,2.639,0,0,1-.582-.078v-.675a1.235,1.235,0,0,0,.252.045,2.068,2.068,0,0,0,.216.015c.345,0,.522-.108.522-.33,0-.2-.183-.3-.543-.3h-.276l.291-1.119Z" transform="translate(-139.332 -122.799)" fill="#fff"/>
            <path id="Caminho_797" data-name="Caminho 797" d="M181.819,119.976a.948.948,0,0,1-.489-.123c-.144-.084-.267-.162-.384-.237a.608.608,0,0,0-.315-.123c-.168,0-.252.129-.252.39v.069h-.819v-.069a1.5,1.5,0,0,1,.252-.942.859.859,0,0,1,.729-.321.926.926,0,0,1,.489.123c.135.084.267.162.384.237a.559.559,0,0,0,.306.123c.168,0,.252-.129.252-.39v-.069h.834v.069a1.5,1.5,0,0,1-.252.942A.885.885,0,0,1,181.819,119.976Z" transform="translate(-150.469 -118.62)" fill="#fff"/>
            <path id="Caminho_798" data-name="Caminho 798" d="M195.707,129.493a2.341,2.341,0,0,1-1.2-.3,2,2,0,0,1-.789-.843,2.8,2.8,0,0,1-.285-1.281,2.732,2.732,0,0,1,.285-1.287,2.047,2.047,0,0,1,.8-.852,2.55,2.55,0,0,1,2.4,0,2,2,0,0,1,.789.843,2.8,2.8,0,0,1,.285,1.281,2.733,2.733,0,0,1-.285,1.287,2.086,2.086,0,0,1-.789.852,2.371,2.371,0,0,1-1.2.3Zm0-1.089a.744.744,0,0,0,.66-.354,1.694,1.694,0,0,0,.237-.981,1.785,1.785,0,0,0-.237-1,.792.792,0,0,0-1.32,0,1.714,1.714,0,0,0-.237.981,1.785,1.785,0,0,0,.237,1A.753.753,0,0,0,195.707,128.4Z" transform="translate(-160.177 -122.827)" fill="#fff"/>
            <path id="Caminho_799" data-name="Caminho 799" d="M179.463,124.62a4.958,4.958,0,0,0-1.8.315v1.089a4.487,4.487,0,0,1,1.587-.33c.627,0,.981.285.981.789-.108-.009-.291-.015-.459-.015-1.44,0-2.352.591-2.352,1.593a1.428,1.428,0,0,0,1.6,1.434,1.45,1.45,0,0,0,1.227-.6l.015.483h1.281V126.66a1.855,1.855,0,0,0-2.076-2.04Zm.774,3.066a.785.785,0,0,1-.813.828c-.423,0-.681-.192-.681-.567,0-.429.414-.651,1.149-.651.108,0,.276.009.345.015Z" transform="translate(-148.971 -122.82)" fill="#fff"/>
            <path id="Caminho_800" data-name="Caminho 800" d="M149.7,124.62a4.958,4.958,0,0,0-1.8.315v1.089a4.487,4.487,0,0,1,1.587-.33c.627,0,.981.285.981.789-.108-.009-.291-.015-.459-.015-1.44,0-2.352.591-2.352,1.593a1.428,1.428,0,0,0,1.6,1.434,1.45,1.45,0,0,0,1.227-.6l.015.483h1.281V126.66a1.855,1.855,0,0,0-2.076-2.04Zm.774,3.066a.785.785,0,0,1-.813.828c-.423,0-.681-.192-.681-.567,0-.429.414-.651,1.149-.651.108,0,.276.009.345.015Z" transform="translate(-128.139 -122.82)" fill="#fff"/>
          </g>
        </g>
        <g id="Grupo_1531" data-name="Grupo 1531" transform="translate(77.08 18.336)">
          <path id="Caminho_801" data-name="Caminho 801" d="M314.34,115.643h-7.08V104.93h6.921v2.064H309.69v2.19h3.7v2.064h-3.7v2.334h4.65v2.064Z" transform="translate(-307.26 -104.216)" fill="#fff"/>
          <path id="Caminho_802" data-name="Caminho 802" d="M337.693,121.03a6.845,6.845,0,0,1-1.476-.159,4.575,4.575,0,0,1-1.254-.459v-1.89a4.384,4.384,0,0,0,1.182.507,4.9,4.9,0,0,0,1.293.174q1.269,0,1.269-.777a.608.608,0,0,0-.324-.525,5.125,5.125,0,0,0-1.263-.459,2.532,2.532,0,0,1-2.19-2.508,2.248,2.248,0,0,1,.96-1.89,4.186,4.186,0,0,1,2.562-.714,5.5,5.5,0,0,1,1.167.126,3.548,3.548,0,0,1,.975.348v1.857a4.4,4.4,0,0,0-2.079-.507c-.816,0-1.221.237-1.221.714a.561.561,0,0,0,.3.492,5.268,5.268,0,0,0,1.206.444,3.591,3.591,0,0,1,1.779.96,2.365,2.365,0,0,1,.555,1.626,2.3,2.3,0,0,1-.921,1.92,4.017,4.017,0,0,1-2.523.714Z" transform="translate(-326.629 -109.396)" fill="#fff"/>
          <path id="Caminho_803" data-name="Caminho 803" d="M363.141,121.023a4.463,4.463,0,0,1-2.223-.525,3.592,3.592,0,0,1-1.452-1.5,4.862,4.862,0,0,1-.516-2.31,4.618,4.618,0,0,1,.54-2.286,3.881,3.881,0,0,1,1.5-1.533,4.409,4.409,0,0,1,2.229-.549,4.284,4.284,0,0,1,1.11.144,2.7,2.7,0,0,1,.858.366v1.953a2.714,2.714,0,0,0-1.668-.507,2.01,2.01,0,0,0-1.563.627,2.99,2.99,0,0,0,.015,3.516,1.983,1.983,0,0,0,1.563.651,2.732,2.732,0,0,0,1.746-.54v1.935a2.826,2.826,0,0,1-.921.4,4.845,4.845,0,0,1-1.221.15Z" transform="translate(-343.443 -109.389)" fill="#fff"/>
          <path id="Caminho_804" data-name="Caminho 804" d="M387.162,121.037a4.123,4.123,0,0,1-2.127-.531,3.615,3.615,0,0,1-1.4-1.509,4.973,4.973,0,0,1-.5-2.292,5.029,5.029,0,0,1,.5-2.3,3.636,3.636,0,0,1,1.413-1.524,4.082,4.082,0,0,1,2.118-.54,4.154,4.154,0,0,1,2.127.531,3.614,3.614,0,0,1,1.4,1.509,4.973,4.973,0,0,1,.5,2.292,5.029,5.029,0,0,1-.5,2.3,3.654,3.654,0,0,1-1.4,1.524A4.068,4.068,0,0,1,387.162,121.037Zm0-1.953a1.334,1.334,0,0,0,1.167-.627,3.136,3.136,0,0,0,.42-1.755,3.244,3.244,0,0,0-.42-1.779,1.394,1.394,0,0,0-2.334-.009,3.111,3.111,0,0,0-.42,1.755,3.244,3.244,0,0,0,.42,1.779,1.326,1.326,0,0,0,1.167.636Z" transform="translate(-360.369 -109.403)" fill="#fff"/>
          <path id="Caminho_805" data-name="Caminho 805" d="M414.18,113.977V102.55h2.412v11.427Z" transform="translate(-382.104 -102.55)" fill="#fff"/>
          <path id="Caminho_806" data-name="Caminho 806" d="M429.115,121.03a2.855,2.855,0,0,1-1.968-.66,2.24,2.24,0,0,1-.747-1.77,2.556,2.556,0,0,1,1.1-2.2,5.235,5.235,0,0,1,3.1-.786c.117,0,.234,0,.348.009s.234.012.348.024c-.1-.93-.7-1.4-1.794-1.4a3.952,3.952,0,0,0-2.349.747v-1.89a4.577,4.577,0,0,1,2.745-.777,3.735,3.735,0,0,1,2.73.936,3.588,3.588,0,0,1,.951,2.682v4.872H431.6l-.126-.873a2.434,2.434,0,0,1-.993.8,3.294,3.294,0,0,1-1.374.285Zm2.19-3.891c-.159-.009-.36-.015-.6-.015a3,3,0,0,0-1.5.309.972.972,0,0,0-.531.882.987.987,0,0,0,.318.777,1.212,1.212,0,0,0,.84.285,1.392,1.392,0,0,0,1.047-.444,1.519,1.519,0,0,0,.429-1.095Z" transform="translate(-390.657 -109.396)" fill="#fff"/>
        </g>
      </g>
      <rect id="Retângulo_860" data-name="Retângulo 860" width="0.648" height="43.588" transform="translate(62.017)" fill="#fff"/>
    </g>
  </g>
</svg>
