<svg width="272" height="271" xmlns="http://www.w3.org/2000/svg" xmlns:xlink="http://www.w3.org/1999/xlink" xml:space="preserve" overflow="hidden"><defs><clipPath id="clip0"><rect x="888" y="205" width="272" height="271"/></clipPath></defs><g clip-path="url(#clip0)" transform="translate(-888 -205)"><path d="M268.724 228.99 262.082 210.213 262.082 72.6132C262.082 70.5669 260.423 68.9081 258.377 68.9081L216.71 68.9081 216.71 25.4804C216.7 16.5334 209.449 9.28318 200.502 9.27328L70.5023 9.27328C61.5556 9.2835 54.3053 16.5336 54.2953 25.4804L54.2953 68.9081 12.6248 68.9081C10.5785 68.9081 8.91971 70.5669 8.91971 72.6132L8.91971 210.213 2.27598 228.99C2.13423 229.387 2.06136 229.804 2.06055 230.225L2.06055 247.076C2.07076 255.164 8.62648 261.719 16.7152 261.727L254.285 261.727C262.372 261.717 268.926 255.163 268.936 247.076L268.936 230.225C268.936 229.804 268.864 229.387 268.724 228.99ZM109.776 233.93 161.224 233.93 161.224 239.888 109.776 239.888ZM11.0094 226.52 15.2437 214.553 255.756 214.553 259.991 226.52ZM61.7038 25.4804C61.7091 20.6236 65.6455 16.6881 70.5023 16.6834L200.502 16.6834C205.359 16.6887 209.295 20.6241 209.3 25.4804L209.3 171.06C209.295 175.916 205.359 179.851 200.502 179.857L70.5023 179.857C65.646 179.851 61.7107 175.916 61.7054 171.06ZM70.5023 187.265 200.502 187.265C209.449 187.255 216.699 180.005 216.71 171.058L216.71 89.5507 241.438 89.5507 241.438 193.911 29.5623 193.911 29.5623 89.5507 54.2937 89.5507 54.2937 171.062C54.3064 180.008 61.5567 187.256 70.5023 187.265ZM16.3299 76.3183 54.2937 76.3183 54.2937 82.1405 25.8572 82.1405C23.8109 82.1405 22.1521 83.7993 22.1521 85.8456L22.1521 197.616C22.1521 199.662 23.8109 201.321 25.8572 201.321L245.145 201.321C247.191 201.321 248.85 199.662 248.85 197.616L248.85 85.8456C248.85 83.7993 247.191 82.1405 245.145 82.1405L216.71 82.1405 216.71 76.3183 254.67 76.3183 254.67 207.143 16.3299 207.143ZM261.526 247.076C261.52 251.073 258.282 254.311 254.285 254.317L16.7152 254.317C12.7186 254.311 9.48024 251.073 9.47441 247.076L9.47441 233.93 102.366 233.93 102.366 243.594C102.366 245.64 104.025 247.299 106.071 247.299L164.929 247.299C166.975 247.299 168.634 245.64 168.634 243.594L168.634 233.93 261.526 233.93ZM96.3791 69.3379C107.903 69.3448 117.25 60.008 117.257 48.4841 117.259 45.4537 116.601 42.4592 115.328 39.7089L120.208 34.8288C121.655 33.3818 121.655 31.0357 120.208 29.5888 118.761 28.1418 116.415 28.1418 114.968 29.5888L110.994 33.5627C102.764 25.4904 89.548 25.6183 81.4757 33.8484 73.4034 42.0784 73.531 55.2941 81.761 63.3664 85.6641 67.1942 90.9126 69.3384 96.3791 69.3379ZM96.3791 34.9902C99.882 34.9883 103.247 36.356 105.755 38.8012L96.3791 48.1766 91.6991 43.4955C90.252 42.0485 87.9062 42.0485 86.4591 43.4955 85.012 44.9425 85.012 47.2885 86.4591 48.7355L93.7591 56.0361C95.2062 57.4832 97.5521 57.4832 98.9986 56.0367 98.9992 56.0361 98.9992 56.0361 98.9992 56.0361L109.521 45.5148C111.144 52.7733 106.576 59.9736 99.3167 61.5969 92.0585 63.2197 84.8585 58.6519 83.2351 51.3931 81.6118 44.1346 86.1801 36.9344 93.4384 35.3111 94.4038 35.0953 95.3899 34.9864 96.3791 34.9865ZM96.3791 119.152C107.903 119.158 117.25 109.822 117.257 98.2978 117.259 95.2676 116.601 92.2729 115.328 89.5226L120.208 84.6425C121.655 83.1954 121.655 80.8496 120.208 79.4025 118.761 77.9554 116.415 77.9554 114.968 79.4025L110.991 83.3791C102.763 75.3052 89.547 75.4306 81.4736 83.6596 73.3997 91.8881 73.5252 105.104 81.7536 113.177 85.6577 117.008 90.9089 119.153 96.3781 119.152ZM96.3791 84.8039C99.882 84.8018 103.247 86.1695 105.755 88.6149L96.3791 97.9909 91.6991 93.3108C90.252 91.8637 87.9062 91.8637 86.4591 93.3108 85.012 94.7579 85.012 97.1037 86.4591 98.5508L93.7591 105.851C95.2062 107.298 97.5521 107.298 98.9986 105.851 98.9992 105.851 98.9992 105.851 98.9992 105.851L109.521 95.3264C111.144 102.585 106.577 109.785 99.3183 111.409 92.0595 113.033 84.8595 108.465 83.2356 101.207 81.6118 93.9486 86.1791 86.7481 93.4378 85.1242 94.4033 84.9082 95.3899 84.7992 96.3791 84.7992ZM96.3791 168.965C107.904 168.972 117.251 159.635 117.257 148.111 117.259 145.08 116.6 142.086 115.328 139.336L120.208 134.456C121.655 133.009 121.655 130.663 120.208 129.216 118.76 127.769 116.415 127.769 114.968 129.216L110.991 133.192C102.762 125.118 89.5464 125.244 81.4731 133.473 73.3992 141.701 73.5246 154.917 81.7531 162.991 85.6566 166.821 90.9078 168.966 96.377 168.965ZM96.3791 134.618C99.882 134.616 103.247 135.983 105.755 138.429L96.3791 147.805 91.6991 143.124C90.252 141.677 87.9062 141.677 86.4591 143.124 85.012 144.571 85.012 146.917 86.4591 148.364L93.7591 155.665C95.2062 157.112 97.5521 157.112 98.9986 155.665 98.9992 155.665 98.9992 155.665 98.9992 155.665L109.521 145.143C111.145 152.401 106.578 159.602 99.3194 161.226 92.0611 162.85 84.8606 158.283 83.2362 151.024 81.6123 143.766 86.1796 136.565 93.4378 134.941 94.4033 134.725 95.3899 134.616 96.3797 134.616ZM128.115 34.5578C128.115 32.5115 129.774 30.8527 131.82 30.8527L191.798 30.8527C193.844 30.8527 195.503 32.5115 195.503 34.5578 195.503 36.6041 193.844 38.2629 191.798 38.2629L131.82 38.2629C129.774 38.2629 128.115 36.6041 128.115 34.5578ZM128.115 48.4561C128.115 46.4098 129.774 44.751 131.82 44.751L191.798 44.751C193.844 44.751 195.503 46.4098 195.503 48.4561 195.503 50.5023 193.844 52.1611 191.798 52.1611L131.82 52.1611C129.774 52.1611 128.115 50.5023 128.115 48.4561ZM128.115 62.3549C128.115 60.3086 129.774 58.6498 131.82 58.6498L191.798 58.6498C193.844 58.6498 195.503 60.3086 195.503 62.3549 195.503 64.4011 193.844 66.06 191.798 66.06L131.82 66.06C129.774 66.06 128.115 64.4011 128.115 62.3549ZM128.115 84.3736C128.115 82.3274 129.774 80.6685 131.82 80.6685L191.798 80.6685C193.844 80.6685 195.503 82.3274 195.503 84.3736 195.503 86.4199 193.844 88.0787 191.798 88.0787L131.82 88.0787C129.774 88.0787 128.115 86.4199 128.115 84.3736 128.115 84.3726 128.115 84.371 128.115 84.3699ZM128.115 98.2724C128.115 96.2262 129.774 94.5674 131.82 94.5674L191.798 94.5674C193.844 94.5674 195.503 96.2262 195.503 98.2724 195.503 100.319 193.844 101.978 191.798 101.978L131.82 101.978C129.774 101.978 128.115 100.319 128.115 98.2724 128.115 98.2719 128.115 98.2708 128.115 98.2703ZM128.115 112.171C128.115 110.124 129.774 108.466 131.82 108.466L191.798 108.466C193.844 108.466 195.503 110.124 195.503 112.171 195.503 114.217 193.844 115.876 191.798 115.876L131.82 115.876C129.774 115.876 128.115 114.217 128.115 112.171 128.115 112.17 128.115 112.169 128.115 112.169ZM128.115 134.189C128.115 132.143 129.774 130.484 131.82 130.484L191.798 130.484C193.844 130.484 195.503 132.143 195.503 134.189 195.503 136.236 193.844 137.895 191.798 137.895L131.82 137.895C129.774 137.895 128.115 136.236 128.115 134.189 128.115 134.188 128.115 134.187 128.115 134.185ZM128.115 148.088C128.115 146.041 129.774 144.383 131.82 144.383L191.798 144.383C193.844 144.383 195.503 146.041 195.503 148.088 195.503 150.134 193.844 151.793 191.798 151.793L131.82 151.793C129.774 151.793 128.115 150.134 128.115 148.088 128.115 148.086 128.115 148.085 128.115 148.083ZM128.115 161.986C128.115 159.94 129.774 158.281 131.82 158.281L191.798 158.281C193.844 158.281 195.503 159.94 195.503 161.986 195.503 164.032 193.844 165.691 191.798 165.691L131.82 165.691C129.774 165.691 128.115 164.032 128.115 161.986 128.115 161.984 128.115 161.983 128.115 161.982Z" fill="#F0943F" transform="matrix(1.00369 0 0 1 888 205)"/></g></svg>