<svg width="298" height="298" xmlns="http://www.w3.org/2000/svg" xmlns:xlink="http://www.w3.org/1999/xlink" xml:space="preserve" overflow="hidden"><defs><clipPath id="clip0"><rect x="78" y="78" width="298" height="298"/></clipPath></defs><g clip-path="url(#clip0)" transform="translate(-78 -78)"><path d="M370.762 333.694 365.548 333.694 365.548 165.792C365.548 156.473 357.967 148.892 348.649 148.892L336.805 148.892C339.374 142.835 340.795 136.178 340.795 129.195 340.795 101.287 318.09 78.582 290.182 78.582 262.273 78.582 239.568 101.287 239.568 129.195 239.568 135.84 240.886 142.441 243.406 148.545 243.227 148.655 243.055 148.776 242.88 148.892L105.351 148.892C96.0325 148.892 88.451 156.473 88.451 165.792L88.451 333.695 83.2383 333.695C80.6669 333.695 78.582 335.78 78.582 338.351L78.582 353.158C78.582 365.433 88.5674 375.418 100.842 375.418L353.158 375.418C365.432 375.418 375.418 365.433 375.418 353.158L375.418 338.351C375.418 335.779 373.333 333.694 370.762 333.694ZM253.748 148.661C250.564 142.716 248.88 135.985 248.88 129.195 248.88 106.422 267.408 87.8945 290.181 87.8945 312.954 87.8945 331.482 106.422 331.482 129.195 331.482 151.969 312.954 170.497 290.181 170.497 283.21 170.497 276.32 168.727 270.254 165.378 269.016 164.695 267.534 164.611 266.225 165.151 264.918 165.691 263.927 166.796 263.532 168.155 262.264 172.525 258.195 175.576 253.64 175.576 247.96 175.576 243.339 170.956 243.339 165.276 243.339 160.659 246.442 156.577 250.885 155.347 252.249 154.97 253.367 153.993 253.924 152.691 254.481 151.392 254.416 149.908 253.748 148.661ZM312.832 316.269 301.881 316.269 301.881 262.861 312.832 262.861ZM315.363 253.548 299.349 253.548C295.609 253.548 292.568 256.59 292.568 260.329L292.568 316.268 283.449 316.268 283.449 272.822C283.449 269.083 280.407 266.04 276.667 266.04L260.654 266.04C256.914 266.04 253.872 269.083 253.872 272.822L253.872 316.268 244.753 316.268 244.753 243.563C244.753 239.823 241.711 236.782 237.971 236.782L221.958 236.782C218.219 236.782 215.177 239.824 215.177 243.563L215.177 316.269 206.057 316.269 206.057 287.593C206.057 283.853 203.015 280.812 199.276 280.812L183.263 280.812C179.523 280.812 176.481 283.854 176.481 287.593L176.481 316.269 163.24 316.269 163.24 175.629 236.993 175.629C240.461 181.183 246.624 184.888 253.64 184.888 260.457 184.888 266.7 181.298 270.234 175.72 276.506 178.405 283.314 179.809 290.182 179.809 297.332 179.809 304.139 178.315 310.312 175.629L338.811 175.629 338.811 316.268 322.145 316.268 322.145 260.329C322.145 256.59 319.102 253.548 315.363 253.548ZM274.136 316.269 263.184 316.269 263.184 275.353 274.136 275.353ZM235.44 316.269 224.489 316.269 224.489 246.094 235.44 246.094ZM196.744 316.269 185.793 316.269 185.793 290.124 196.744 290.124ZM153.927 216.301 115.189 216.301 115.189 175.629 153.928 175.629 153.928 216.301ZM115.189 225.614 153.928 225.614 153.928 266.285 115.189 266.285ZM115.189 275.597 153.928 275.597 153.928 316.269 115.189 316.269ZM97.7635 165.792C97.7635 161.608 101.167 158.204 105.351 158.204L235.363 158.204C234.502 160.417 234.027 162.805 234.027 165.276 234.027 165.625 234.037 165.972 234.055 166.317L110.533 166.317C107.962 166.317 105.877 168.402 105.877 170.973L105.877 320.925C105.877 323.497 107.962 325.582 110.533 325.582L343.467 325.582C346.038 325.582 348.123 323.497 348.123 320.925L348.123 170.973C348.123 168.402 346.038 166.317 343.467 166.317L324.548 166.317C327.185 163.873 329.563 161.154 331.633 158.204L348.649 158.204C352.832 158.204 356.236 161.608 356.236 165.792L356.236 333.695 97.7635 333.695ZM187.759 343.007 266.24 343.007 266.24 348.369 187.759 348.369ZM366.105 353.158C366.105 360.297 360.297 366.105 353.158 366.105L100.842 366.105C93.7026 366.105 87.8945 360.297 87.8945 353.158L87.8945 343.008 178.447 343.008 178.447 353.026C178.447 355.597 180.532 357.682 183.103 357.682L270.896 357.682C273.468 357.682 275.552 355.597 275.552 353.026L275.552 343.008 366.105 343.008ZM323.549 206.916C322.925 205.729 321.818 204.867 320.513 204.554L306.275 201.14C303.772 200.539 301.261 202.081 300.661 204.582 300.062 207.082 301.602 209.596 304.103 210.196L306.295 210.721 278.961 225.081C276.289 222.502 272.659 220.91 268.661 220.91 266.228 220.91 263.932 221.503 261.904 222.545L243.264 204.154C244.25 202.17 244.807 199.937 244.807 197.575 244.807 189.391 238.149 182.733 229.965 182.733 221.781 182.733 215.123 189.391 215.123 197.575 215.123 200.795 216.157 203.777 217.906 206.212L195.806 236.528C194.375 236.067 192.851 235.816 191.269 235.816 183.085 235.816 176.427 242.474 176.427 250.658 176.427 258.842 183.085 265.5 191.269 265.5 199.452 265.5 206.11 258.842 206.11 250.658 206.11 247.437 205.076 244.456 203.327 242.02L225.427 211.704C226.858 212.165 228.382 212.416 229.964 212.416 232.397 212.416 234.693 211.824 236.721 210.782L255.361 229.173C254.375 231.157 253.818 233.39 253.818 235.752 253.818 243.936 260.476 250.594 268.66 250.594 276.844 250.594 283.502 243.936 283.502 235.752 283.502 234.924 283.43 234.112 283.299 233.321L310.625 218.965 309.814 221.068C308.889 223.467 310.084 226.162 312.484 227.087 313.034 227.3 313.6 227.4 314.157 227.4 316.027 227.4 317.79 226.267 318.503 224.418L323.77 210.757C324.254 209.505 324.173 208.105 323.549 206.916ZM191.269 256.187C188.22 256.187 185.739 253.707 185.739 250.658 185.739 247.609 188.22 245.129 191.269 245.129 194.317 245.129 196.798 247.609 196.798 250.658 196.798 253.707 194.318 256.187 191.269 256.187ZM229.965 203.104C226.916 203.104 224.436 200.623 224.436 197.574 224.436 194.526 226.916 192.045 229.965 192.045 233.014 192.045 235.494 194.526 235.494 197.574 235.494 200.623 233.014 203.104 229.965 203.104ZM268.661 241.281C265.612 241.281 263.131 238.801 263.131 235.752 263.131 232.703 265.612 230.223 268.661 230.223 271.709 230.223 274.19 232.703 274.19 235.752 274.19 238.801 271.709 241.281 268.661 241.281ZM147.781 243.293 138.426 254.556C137.569 255.589 136.307 256.201 134.966 256.236 134.926 256.237 134.885 256.238 134.845 256.238 133.547 256.238 132.305 255.695 131.422 254.738L121.495 243.977C119.751 242.087 119.87 239.141 121.76 237.397 123.65 235.654 126.596 235.772 128.34 237.663L134.661 244.515 140.617 237.343C142.26 235.366 145.195 235.093 147.174 236.736 149.152 238.379 149.424 241.314 147.781 243.293ZM121.76 204.517C119.87 202.774 119.751 199.828 121.495 197.938L131.422 187.176C132.333 186.19 133.641 185.654 134.966 185.679 136.308 185.714 137.569 186.326 138.426 187.358L147.781 198.622C149.424 200.601 149.152 203.537 147.174 205.18 146.304 205.901 145.25 206.254 144.202 206.254 142.865 206.254 141.538 205.682 140.617 204.573L134.661 197.4 128.34 204.252C126.596 206.143 123.65 206.26 121.76 204.517ZM147.68 295.934C147.68 298.505 145.595 300.59 143.024 300.59L126.092 300.59C123.521 300.59 121.436 298.505 121.436 295.934 121.436 293.363 123.521 291.278 126.092 291.278L143.024 291.278C145.596 291.278 147.68 293.363 147.68 295.934ZM147.68 308.323C147.68 310.894 145.595 312.979 143.024 312.979L126.092 312.979C123.521 312.979 121.436 310.894 121.436 308.323 121.436 305.751 123.521 303.666 126.092 303.666L143.024 303.666C145.596 303.666 147.68 305.751 147.68 308.323ZM121.436 283.545C121.436 280.974 123.521 278.889 126.092 278.889L143.024 278.889C145.595 278.889 147.68 280.974 147.68 283.545 147.68 286.116 145.595 288.201 143.024 288.201L126.092 288.201C123.52 288.201 121.436 286.116 121.436 283.545ZM273.908 114.149C273.908 105.176 281.208 97.8752 290.181 97.8752 299.154 97.8752 306.455 105.176 306.455 114.149 306.455 120.488 302.733 126.293 296.973 128.942 295.596 129.575 294.837 130.758 294.837 132.273L294.837 136.362C294.837 138.933 292.753 141.018 290.181 141.018 287.61 141.018 285.525 138.933 285.525 136.362L285.525 132.273C285.525 127.142 288.421 122.624 293.084 120.481 295.549 119.347 297.143 116.862 297.143 114.149 297.143 110.31 294.02 107.188 290.181 107.188 286.343 107.188 283.22 110.31 283.22 114.149 283.22 116.721 281.135 118.806 278.564 118.806 275.992 118.806 273.908 116.721 273.908 114.149ZM295.42 150.621C295.42 153.506 293.067 155.859 290.181 155.859 287.296 155.859 284.942 153.506 284.942 150.621 284.942 147.736 287.296 145.382 290.181 145.382 293.067 145.382 295.42 147.736 295.42 150.621Z" fill="#F0943F" fill-rule="evenodd"/></g></svg>