<svg xmlns="http://www.w3.org/2000/svg" width="187.985" height="66.932" viewBox="0 0 187.985 66.932">
  <g id="Grupo_1837" data-name="Grupo 1837" transform="translate(-701.242 -10561.275)">
    <g id="Grupo_1796" data-name="Grupo 1796" transform="translate(17904.273 12878.549)">
      <g id="Grupo_1718" data-name="Grupo 1718" transform="translate(-17203.031 -2317.274)">
        <path id="Uni達o_4" data-name="Uni達o 4" d="M74.047,66.826c-1.021-.017-3.026-.048-4.463-.069s-3.257-.052-4.056-.069c-5.331-.114-6.443-.142-7.533-.177l-3.593-.1c-3.639-.1-9.434-.3-10.836-.378-.383-.02-1.24-.059-1.912-.087-1.784-.076-4.625-.212-6.085-.291-2.538-.138-5.9-.34-6.432-.381-.221-.017-1.136-.083-2.028-.146-2.052-.139-3.755-.267-4.057-.308-.128-.017-.44-.049-.7-.073-.748-.066-2.04-.232-3.131-.39-1.6-.129-1.94-.16-2.268-.2-.2-.024-.69-.074-1.085-.118-1.1-.118-2.847-.346-3.27-.428-.115-.023-.375-.067-.577-.1-.538-.087-1.4-.24-1.837-.33-.767-.158-1.781-.386-1.941-.432-.066-.02-.344-.095-.613-.165a12.425,12.425,0,0,1-1.225-.35c-.038-.019-.132-.055-.209-.082a6.9,6.9,0,0,1-1.512-.8.186.186,0,0,0-.076-.059.541.541,0,0,1-.155-.11c-.066-.059-.168-.141-.22-.184a6.5,6.5,0,0,1-1.084-1.238c-.046-.075-.133-.217-.192-.314a6.583,6.583,0,0,1-.311-.61,11.322,11.322,0,0,1-.878-3.1c-.1-.495-.234-1.277-.293-1.669-.032-.185-.077-.476-.1-.648-.13-.77-.249-1.611-.35-2.475C1,50.7.947,50.331.919,50.114.863,49.71.8,49.1.709,48.17c-.026-.291-.066-.673-.087-.849S.563,46.684.535,46.3s-.069-.844-.088-1.018C.415,45,.353,44.108.273,42.749c-.018-.271-.046-.88-.067-1.356S.15,40.282.132,39.98c-.048-.747-.1-2.887-.125-5.284-.024-1.92.021-5.445.091-7.09.091-2.22.273-5.366.346-6.089.022-.2.063-.672.092-1.06s.063-.77.072-.845.047-.456.084-.845c.077-.794.164-1.575.3-2.652.137-1.111.35-2.643.4-2.868.017-.074.046-.271.067-.432s.063-.408.091-.55.077-.4.105-.57c.185-1.029.444-2.286.5-2.435.018-.044.074-.22.129-.393A6.928,6.928,0,0,1,4.074,5.934,6.936,6.936,0,0,1,6.9,4.386c.021,0,.185-.048.367-.095s.459-.121.613-.165c.555-.149,1.538-.373,2.116-.483.163-.032.423-.087.576-.118s.392-.078.526-.1.377-.067.542-.1c.779-.15,2.634-.412,3.882-.55.3-.032.7-.075.892-.1.766-.086,1.854-.184,2.85-.25.861-.06,1.565-.106,2.2-.142,1.051-.124,2.129-.226,3.208-.3.07,0,.614-.042,1.216-.082s1.518-.108,2.029-.146c1.843-.132,5.1-.33,7.012-.426.545-.027,1.4-.076,1.912-.1s1.3-.069,1.739-.088,1.25-.058,1.8-.086C42.963.922,49.106.689,53.243.568,54.228.54,55.562.5,56.2.482,58.736.406,62.341.319,65.643.26,72.782.129,76.677.073,81.986.035,90.816-.031,105.048,0,112.756.1c3.987.053,11.2.177,13.792.243.765.016,2.016.048,2.782.065s1.912.052,2.549.073,1.947.058,2.9.087c3.418.1,5.1.153,5.447.173.2.014,1.135.052,2.086.087,4.739.18,12.018.534,14.255.7q.78.052,1.564.1c1.843.114,2.7.17,3.13.208q.926.072,1.855.139c1.257.092,2.415.2,3.5.32,1.2.069,2.734.172,3.366.232.231.019.609.055.84.074s.576.059.769.083.587.067.874.1c1.032.114,1.539.173,1.644.2.059.015.342.059.629.1,1.43.2,3.627.606,4.3.79.157.039.314.077.472.114.556.13.815.193.945.236.186.053.373.106.559.157a6.918,6.918,0,0,1,2.679,1.348A7.465,7.465,0,0,1,184.957,7.2c.119.2.231.389.245.412a10.983,10.983,0,0,1,.564,1.414c.024.087.056.192.074.236.038.091.154.6.252,1.1.038.192.1.51.14.707.273,1.394.591,3.441.762,4.909.039.323.078.637.088.692.025.122.137,1.158.228,2.1.037.389.077.75.087.8s.043.409.071.786.059.758.07.845.049.625.087,1.2.084,1.268.1,1.551.049.891.071,1.356.051,1.119.07,1.453c.157,2.946.157,10.442,0,13.3-.021.322-.056,1.119-.088,1.768s-.066,1.327-.088,1.512-.049.624-.07.982-.053.8-.073,1-.055.672-.084,1.06-.067.813-.088.943-.06.491-.087.805c-.056.636-.182,1.842-.21,2.023-.01.063-.049.365-.088.668-.174,1.375-.367,2.722-.4,2.809-.01.031-.041.216-.069.412-.112.766-.42,2.389-.584,3.076a9.286,9.286,0,0,1-.416,1.325c-.014.019-.048.117-.084.208a2.8,2.8,0,0,1-.178.385,1.6,1.6,0,0,0-.122.244,1.4,1.4,0,0,1-.133.224c-.07.106-.154.239-.185.294a7.447,7.447,0,0,1-.763.919,3.942,3.942,0,0,1-.646.554.983.983,0,0,0-.154.126,9.334,9.334,0,0,1-1.319.7q-.175.067-.349.137a12.72,12.72,0,0,1-1.225.35c-.269.07-.545.144-.611.165-.161.047-1.175.275-1.942.432-.7.145-1.924.353-2.815.482-.242.036-.609.091-.822.126-.745.117-2.945.357-4.442.487l-.877.073c-1,.143-2.156.3-2.67.347-.387.039-.774.079-1.159.121-.311.042-2.051.173-4.055.308-.894.062-1.809.128-2.028.146-.534.041-3.895.242-6.433.381-2.318.128-6.375.312-9.33.426-.8.031-2.017.079-2.723.111-2.468.1-9.761.315-14.719.429-3.871.087-4.776.1-7.243.139-1.437.021-3.442.049-4.462.069-4.068.071-12,.107-19.948.107S78.173,66.9,74.047,66.826Z" transform="translate(0 0)" fill="#fff"/>
        <path id="Uni達o_3" data-name="Uni達o 3" d="M69.815,56.1c-.962-.015-2.852-.04-4.208-.058s-3.071-.044-3.824-.058c-5.027-.1-6.075-.12-7.1-.149l-3.387-.087c-3.431-.087-8.9-.255-10.218-.317-.36-.017-1.17-.05-1.8-.073-1.682-.064-4.361-.178-5.737-.244-2.393-.116-5.562-.285-6.064-.32-.207-.015-1.07-.07-1.912-.122-1.935-.117-3.54-.224-3.825-.259-.121-.015-.415-.041-.656-.061-.7-.056-1.924-.195-2.952-.328-1.513-.108-1.829-.135-2.139-.167-.191-.02-.65-.062-1.023-.1-1.035-.1-2.684-.29-3.083-.36-.109-.02-.353-.056-.544-.082-.507-.073-1.316-.2-1.732-.277-.723-.132-1.679-.324-1.83-.363-.062-.017-.324-.079-.578-.138-.583-.132-1.068-.254-1.154-.294-.036-.016-.125-.046-.2-.069A6.809,6.809,0,0,1,4.422,51.5a.175.175,0,0,0-.072-.05.517.517,0,0,1-.146-.092c-.062-.05-.158-.119-.208-.155a5.694,5.694,0,0,1-1.022-1.039c-.043-.063-.126-.182-.182-.264a5.437,5.437,0,0,1-.293-.512,8.736,8.736,0,0,1-.828-2.6c-.092-.415-.221-1.072-.277-1.4-.03-.155-.072-.4-.1-.544-.122-.647-.234-1.352-.33-2.078-.026-.2-.072-.511-.1-.693-.053-.339-.115-.851-.2-1.632-.025-.244-.062-.565-.082-.713S.53,39.192.5,38.869s-.066-.708-.083-.854c-.03-.237-.089-.986-.164-2.127C.24,35.661.214,35.149.194,34.75s-.053-.933-.07-1.187C.079,32.936.029,31.14.006,29.128c-.023-1.612.02-4.571.086-5.952.086-1.863.257-4.505.326-5.112.02-.165.059-.564.086-.89s.059-.647.068-.709.044-.383.08-.709c.072-.666.155-1.323.28-2.226.129-.933.33-2.219.38-2.408.016-.062.043-.227.063-.362s.059-.343.086-.461.072-.333.1-.478c.175-.864.419-1.919.475-2.045.017-.037.069-.185.122-.33A5.748,5.748,0,0,1,3.841,4.981a6.811,6.811,0,0,1,2.665-1.3c.02,0,.174-.04.346-.079s.432-.1.578-.138c.524-.126,1.451-.314,2-.406.154-.027.4-.073.543-.1s.37-.066.5-.082.355-.056.51-.083c.735-.126,2.484-.346,3.661-.461.279-.026.659-.063.841-.083.722-.072,1.747-.155,2.687-.21.811-.05,1.475-.089,2.077-.119.991-.1,2.007-.189,3.025-.254.066,0,.579-.035,1.147-.069s1.431-.091,1.913-.122c1.738-.111,4.807-.277,6.611-.358.514-.023,1.323-.064,1.8-.087s1.224-.058,1.64-.073S37.557.908,38.071.884C40.508.774,46.3.579,50.2.477,51.129.453,52.386.422,52.987.4,55.38.34,58.778.268,61.892.218,68.624.108,72.3.061,77.3.029,85.626-.026,99.045,0,106.313.084c3.759.044,10.556.149,13,.2.721.014,1.9.04,2.623.055s1.8.044,2.4.062,1.835.049,2.733.073c3.223.085,4.807.128,5.135.145.186.012,1.07.044,1.967.073,4.468.151,11.332.449,13.441.584l1.475.085c1.738.1,2.547.143,2.951.174q.872.06,1.749.117c1.185.077,2.277.166,3.3.268,1.133.058,2.579.145,3.174.195l.792.062c.217.021.544.05.725.069s.554.056.825.083c.972.1,1.451.145,1.55.165.055.013.323.05.594.082,1.348.172,3.419.508,4.056.663.149.032.3.065.445.1.525.109.769.162.891.2.175.044.351.089.527.132A6.86,6.86,0,0,1,173.195,4.8a6.547,6.547,0,0,1,1.193,1.244c.112.171.218.326.231.346a8.635,8.635,0,0,1,.532,1.187c.023.073.053.161.069.2a8.814,8.814,0,0,1,.238.924c.036.161.1.428.132.594.257,1.17.557,2.889.719,4.122.037.271.074.535.083.581.023.1.129.972.214,1.761.036.326.073.63.082.676s.04.343.066.66.056.637.066.709.046.525.082,1.006.08,1.065.1,1.3.046.748.067,1.138.049.94.066,1.22c.148,2.473.148,8.766,0,11.163-.02.27-.053.94-.083,1.484s-.062,1.114-.083,1.27-.046.524-.066.824-.05.676-.069.841-.052.564-.079.89-.063.683-.083.792-.056.412-.082.676c-.053.534-.172,1.546-.2,1.7-.009.053-.046.307-.083.56-.164,1.154-.346,2.285-.376,2.358-.009.027-.039.181-.066.346-.1.643-.4,2.005-.55,2.582a7.18,7.18,0,0,1-.392,1.112,1.776,1.776,0,0,0-.079.174,2.243,2.243,0,0,1-.168.323,1.3,1.3,0,0,0-.115.205,1.128,1.128,0,0,1-.126.188c-.066.089-.145.2-.174.247a6.5,6.5,0,0,1-.719.771,3.635,3.635,0,0,1-.61.465.934.934,0,0,0-.145.106,9.149,9.149,0,0,1-1.243.587q-.166.056-.33.115c-.089.04-.583.165-1.154.294-.254.059-.514.121-.577.138-.152.039-1.108.231-1.831.363-.66.121-1.814.3-2.654.4-.228.03-.574.076-.775.106-.7.1-2.777.3-4.188.408l-.828.061c-.94.12-2.033.249-2.517.292q-.547.049-1.093.1c-.294.035-1.934.145-3.824.259-.842.052-1.705.108-1.912.122-.5.034-3.672.2-6.065.32-2.185.108-6.01.262-8.8.358-.754.026-1.9.067-2.568.093-2.327.087-9.2.265-13.879.361-3.649.073-4.5.087-6.829.116-1.355.018-3.246.041-4.208.058-3.835.06-11.315.09-18.809.09S73.705,56.161,69.815,56.1Z" transform="translate(4.958 5.784)" fill="#ed770c"/>
        <path id="Caminho_1516" data-name="Caminho 1516" d="M1.392,0V-16.2H6.576a7.71,7.71,0,0,1,4.884,1.4,4.63,4.63,0,0,1,1.788,3.852,4.866,4.866,0,0,1-1.812,4.02A7.838,7.838,0,0,1,6.408-5.472H5.04V0ZM6.648-13.272H5.04V-8.4H6.6a3.174,3.174,0,0,0,2.136-.66A2.291,2.291,0,0,0,9.5-10.9a2.138,2.138,0,0,0-.756-1.764A3.251,3.251,0,0,0,6.648-13.272ZM18.24.312a4.331,4.331,0,0,1-2.976-1A3.391,3.391,0,0,1,14.136-3.36a3.857,3.857,0,0,1,1.656-3.324,7.934,7.934,0,0,1,4.68-1.188q.264,0,.528.012t.528.036q-.24-2.112-2.712-2.112a5.978,5.978,0,0,0-3.552,1.128v-2.856a6.926,6.926,0,0,1,4.152-1.176,5.643,5.643,0,0,1,4.128,1.416,5.435,5.435,0,0,1,1.44,4.056V0H22.008l-.192-1.32a3.681,3.681,0,0,1-1.5,1.2A4.947,4.947,0,0,1,18.24.312Zm3.312-5.88q-.36-.024-.912-.024a4.543,4.543,0,0,0-2.268.468,1.466,1.466,0,0,0-.8,1.332,1.5,1.5,0,0,0,.48,1.176,1.829,1.829,0,0,0,1.272.432A2.116,2.116,0,0,0,20.9-2.856a2.294,2.294,0,0,0,.648-1.656ZM27.36,0V-12.528h3.192l.24,1.8A3.932,3.932,0,0,1,32-12.216a2.7,2.7,0,0,1,1.62-.552,2.4,2.4,0,0,1,.96.168v3.384a2.285,2.285,0,0,0-1.032-.216,2.314,2.314,0,0,0-1.86.8,3.319,3.319,0,0,0-.684,2.22V0ZM39.576.312a4.331,4.331,0,0,1-2.976-1A3.391,3.391,0,0,1,35.472-3.36a3.857,3.857,0,0,1,1.656-3.324,7.934,7.934,0,0,1,4.68-1.188q.264,0,.528.012t.528.036q-.24-2.112-2.712-2.112A5.978,5.978,0,0,0,36.6-8.808v-2.856a6.926,6.926,0,0,1,4.152-1.176,5.643,5.643,0,0,1,4.128,1.416,5.435,5.435,0,0,1,1.44,4.056V0H43.344l-.192-1.32a3.681,3.681,0,0,1-1.5,1.2A4.947,4.947,0,0,1,39.576.312Zm3.312-5.88q-.36-.024-.912-.024a4.543,4.543,0,0,0-2.268.468,1.466,1.466,0,0,0-.8,1.332,1.5,1.5,0,0,0,.48,1.176,1.829,1.829,0,0,0,1.272.432,2.116,2.116,0,0,0,1.584-.672,2.294,2.294,0,0,0,.648-1.656ZM52.776,0V-12.528h3.192l.24,1.8a3.932,3.932,0,0,1,1.212-1.488,2.7,2.7,0,0,1,1.62-.552A2.4,2.4,0,0,1,60-12.6v3.384a2.285,2.285,0,0,0-1.032-.216,2.314,2.314,0,0,0-1.86.8,3.319,3.319,0,0,0-.684,2.22V0ZM67.392.312a6.436,6.436,0,0,1-4.8-1.752,6.6,6.6,0,0,1-1.728-4.848,7.482,7.482,0,0,1,.744-3.432A5.621,5.621,0,0,1,63.7-12.012a5.827,5.827,0,0,1,3.12-.828,4.973,4.973,0,0,1,3.96,1.656,6.718,6.718,0,0,1,1.44,4.56v1.56H64.392q.576,2.544,3.5,2.544a7.174,7.174,0,0,0,1.872-.252,5.98,5.98,0,0,0,1.656-.708V-.672a5.713,5.713,0,0,1-1.764.72A9.424,9.424,0,0,1,67.392.312Zm-3.048-7.8h4.512a3.149,3.149,0,0,0-.624-1.956,1.96,1.96,0,0,0-1.584-.684Q64.68-10.128,64.344-7.488ZM74.928,0V-9.744h-1.92v-2.784h1.92v-.1a4.922,4.922,0,0,1,1.32-3.66A4.956,4.956,0,0,1,79.9-17.592a5.253,5.253,0,0,1,.984.1,3.586,3.586,0,0,1,.816.24v2.832a3.145,3.145,0,0,0-1.416-.288q-1.7,0-1.7,2.088v.1h2.736v2.784H78.576V0ZM83.16,0V-17.28h3.648V0ZM95.232.312a6.436,6.436,0,0,1-4.8-1.752A6.6,6.6,0,0,1,88.7-6.288a7.482,7.482,0,0,1,.744-3.432,5.621,5.621,0,0,1,2.088-2.292,5.827,5.827,0,0,1,3.12-.828,4.973,4.973,0,0,1,3.96,1.656,6.718,6.718,0,0,1,1.44,4.56v1.56H92.232q.576,2.544,3.5,2.544a7.174,7.174,0,0,0,1.872-.252,5.98,5.98,0,0,0,1.656-.708V-.672A5.713,5.713,0,0,1,97.5.048,9.424,9.424,0,0,1,95.232.312Zm-3.048-7.8H96.7a3.149,3.149,0,0,0-.624-1.956,1.96,1.96,0,0,0-1.584-.684Q92.52-10.128,92.184-7.488ZM107.232.24q-4.464,0-4.464-4.536V-9.744h-1.92v-2.784h1.92v-3.264h3.648v3.264h2.64v2.784h-2.64v5.112q0,1.968,1.584,1.968a2.779,2.779,0,0,0,1.344-.312V-.168a6.484,6.484,0,0,1-1,.288A5.351,5.351,0,0,1,107.232.24ZM111.24,0V-12.528h3.648V0Zm1.824-13.992a2.083,2.083,0,0,1-1.5-.588,1.961,1.961,0,0,1-.612-1.476,1.961,1.961,0,0,1,.612-1.476,2.083,2.083,0,0,1,1.5-.588,2.072,2.072,0,0,1,1.512.588,1.981,1.981,0,0,1,.6,1.476,1.981,1.981,0,0,1-.6,1.476A2.072,2.072,0,0,1,113.064-13.992ZM117.336,0V-12.528h3.192l.24,1.8a3.932,3.932,0,0,1,1.212-1.488,2.7,2.7,0,0,1,1.62-.552,2.4,2.4,0,0,1,.96.168v3.384a2.285,2.285,0,0,0-1.032-.216,2.314,2.314,0,0,0-1.86.8,3.319,3.319,0,0,0-.684,2.22V0Z" transform="translate(42.739 42.378)" fill="#fff"/>
      </g>
    </g>
    <g id="Grupo_1797" data-name="Grupo 1797" transform="translate(-2 293)">
      <path id="Caminho_1406" data-name="Caminho 1406" d="M10,23.691h3.842c0-4.5,2.428-5.9,3.73-7.845a9.945,9.945,0,0,0,2-5.852,9.569,9.569,0,0,0-19.138,0,9.945,9.945,0,0,0,2,5.852c1.3,1.95,3.73,3.349,3.73,7.845Z" transform="translate(720.352 10286.186)" fill="none" stroke="#fff" stroke-linecap="round" stroke-linejoin="round" stroke-width="3"/>
      <line id="Linha_214" data-name="Linha 214" x2="3.956" transform="translate(728.367 10314.072)" fill="none" stroke="#fff" stroke-linecap="round" stroke-linejoin="round" stroke-width="3"/>
    </g>
  </g>
</svg>
