<svg id="Grupo_1558" data-name="Grupo 1558" xmlns="http://www.w3.org/2000/svg" width="121.935" height="43.415" viewBox="0 0 121.935 43.415">
  <path id="União_4" data-name="União 4" d="M48.03,43.346,45.135,43.3c-.931-.013-2.112-.034-2.631-.045-3.458-.074-4.179-.092-4.886-.115l-2.33-.067c-2.36-.067-6.12-.2-7.029-.245-.248-.013-.8-.038-1.24-.056-1.157-.05-3-.137-3.947-.189-1.646-.09-3.826-.22-4.172-.247-.143-.011-.737-.054-1.316-.094-1.331-.09-2.436-.173-2.631-.2-.083-.011-.285-.032-.451-.047-.485-.043-1.323-.151-2.031-.253-1.041-.084-1.258-.1-1.471-.129l-.7-.077c-.711-.077-1.847-.224-2.121-.278-.075-.015-.243-.044-.374-.063-.349-.056-.906-.156-1.191-.214-.5-.1-1.155-.25-1.259-.281-.043-.013-.223-.061-.4-.107a8.059,8.059,0,0,1-.794-.227c-.024-.013-.086-.036-.135-.053a4.475,4.475,0,0,1-.981-.52.121.121,0,0,0-.049-.038.351.351,0,0,1-.1-.071c-.043-.038-.109-.092-.143-.12a4.214,4.214,0,0,1-.7-.8l-.125-.2a4.27,4.27,0,0,1-.2-.4,7.344,7.344,0,0,1-.57-2.013c-.063-.321-.152-.828-.19-1.083-.021-.12-.05-.309-.068-.42C.807,34.147.73,33.6.664,33.041c-.018-.155-.05-.395-.068-.535-.037-.262-.08-.658-.137-1.261-.017-.189-.043-.436-.056-.551s-.039-.413-.057-.663S.3,29.485.29,29.372c-.021-.183-.061-.762-.113-1.643-.011-.176-.03-.571-.043-.879S.1,26.129.086,25.933C.054,25.448.02,24.06,0,22.505c-.016-1.246.014-3.532.059-4.6.059-1.44.177-3.481.224-3.95.014-.127.041-.436.059-.688s.041-.5.047-.548.03-.3.055-.548c.05-.515.106-1.022.193-1.72C.73,9.732.869,8.738.9,8.592c.011-.048.03-.176.044-.28S.987,8.048,1,7.956s.05-.257.068-.37c.12-.667.288-1.483.327-1.58.011-.028.048-.143.083-.255a4.494,4.494,0,0,1,1.16-1.9,4.5,4.5,0,0,1,1.834-1l.238-.061c.117-.03.3-.079.4-.107.36-.1,1-.242,1.372-.313.106-.021.274-.056.374-.077s.254-.051.341-.063l.351-.064c.505-.1,1.709-.267,2.518-.356.192-.02.454-.049.578-.064.5-.056,1.2-.12,1.848-.162.558-.039,1.015-.069,1.429-.092.682-.08,1.381-.146,2.081-.2.045,0,.4-.027.789-.053L18.11,1.14c1.2-.086,3.308-.214,4.548-.277.353-.018.91-.05,1.24-.067S24.74.751,25.026.739,25.837.7,26.191.683C27.867.6,31.852.447,34.536.369c.639-.019,1.5-.043,1.917-.056C38.1.263,40.437.207,42.579.169,47.21.083,49.736.047,53.179.023,58.907-.02,68.138,0,73.138.065,75.725.1,80.4.18,82.084.223c.5.011,1.308.031,1.8.042s1.24.034,1.653.048S86.8.35,87.422.369c2.217.065,3.306.1,3.533.112.128.009.736.034,1.353.056,3.074.117,7.8.347,9.247.452l1.015.065c1.2.074,1.752.11,2.03.135l1.2.09c.815.06,1.567.128,2.268.207.78.045,1.774.112,2.183.151l.545.048c.149.016.374.038.5.054l.567.064c.669.074,1,.112,1.067.127.038.01.222.038.408.063.928.133,2.352.393,2.79.512l.306.074c.361.084.529.125.613.153l.363.1a4.487,4.487,0,0,1,1.738.874,4.842,4.842,0,0,1,.821.961c.077.132.15.252.159.267a7.123,7.123,0,0,1,.366.917c.016.056.036.125.048.153.025.059.1.387.163.714.025.125.066.331.091.459.177.9.383,2.232.494,3.184.025.209.05.413.057.449.016.079.089.751.148,1.36.024.252.05.487.056.522s.028.265.046.51.038.492.045.548.032.405.057.778.055.823.068,1.006.032.578.046.879.033.726.045.943c.1,1.911.1,6.773,0,8.625-.014.209-.036.726-.057,1.147s-.043.861-.057.981-.032.4-.045.637-.034.522-.048.65-.036.436-.054.688-.044.527-.057.612-.039.318-.057.522c-.037.413-.118,1.195-.137,1.312-.006.041-.032.237-.057.433-.113.892-.238,1.766-.259,1.822-.006.02-.027.14-.045.267-.073.5-.272,1.549-.379,1.995a6.023,6.023,0,0,1-.27.86c-.009.013-.031.076-.055.135a1.813,1.813,0,0,1-.116.25,1.035,1.035,0,0,0-.079.158A.909.909,0,0,1,120,38.6c-.046.069-.1.155-.12.191a4.83,4.83,0,0,1-.495.6,2.557,2.557,0,0,1-.419.359.638.638,0,0,0-.1.082,6.055,6.055,0,0,1-.855.453l-.227.089a8.251,8.251,0,0,1-.794.227c-.174.046-.354.094-.4.107-.1.03-.762.178-1.26.281-.454.094-1.248.229-1.826.313-.157.023-.4.059-.533.082-.483.076-1.91.232-2.881.316l-.569.047c-.647.093-1.4.193-1.732.225-.251.025-.5.052-.752.079-.2.027-1.33.112-2.63.2-.58.04-1.173.083-1.316.094-.346.026-2.526.157-4.173.247-1.5.083-4.135.2-6.052.277-.518.02-1.308.051-1.766.072-1.6.067-6.331.2-9.548.279-2.511.056-3.1.067-4.7.09-.932.014-2.233.032-2.895.045-2.639.046-7.784.069-12.939.069S50.706,43.392,48.03,43.346Z" transform="translate(0 0)" fill="#fff"/>
  <path id="União_3" data-name="União 3" d="M45.285,36.389l-2.729-.038c-.879-.011-1.992-.028-2.481-.038-3.261-.062-3.941-.078-4.607-.1l-2.2-.057c-2.226-.057-5.77-.166-6.628-.206-.234-.011-.759-.032-1.169-.047-1.091-.042-2.828-.115-3.721-.158-1.552-.075-3.608-.185-3.934-.207-.135-.009-.694-.045-1.24-.079-1.255-.076-2.3-.145-2.481-.168-.078-.009-.269-.027-.426-.04-.457-.036-1.248-.126-1.915-.213-.982-.07-1.186-.087-1.387-.108l-.663-.064c-.671-.064-1.741-.188-2-.233-.07-.013-.229-.037-.353-.053-.329-.047-.854-.131-1.123-.18-.469-.086-1.089-.21-1.187-.236-.041-.011-.21-.052-.375-.09-.378-.086-.693-.165-.749-.191-.023-.011-.081-.03-.128-.045a4.417,4.417,0,0,1-.924-.436.113.113,0,0,0-.047-.032.335.335,0,0,1-.095-.06c-.041-.032-.1-.077-.135-.1a3.694,3.694,0,0,1-.663-.674l-.118-.171a3.527,3.527,0,0,1-.19-.332,5.667,5.667,0,0,1-.537-1.69c-.06-.269-.143-.7-.18-.909-.019-.1-.047-.259-.064-.353-.079-.42-.152-.877-.214-1.348-.017-.13-.047-.331-.064-.449-.034-.22-.075-.552-.129-1.058-.016-.159-.04-.366-.053-.462s-.037-.347-.053-.556-.043-.459-.054-.554C.254,24.5.216,24.018.167,23.279.156,23.131.139,22.8.126,22.54s-.034-.605-.046-.77C.051,21.364.019,20.2,0,18.893c-.015-1.046.013-2.965.055-3.861.055-1.209.167-2.922.212-3.316.013-.107.039-.366.056-.577s.038-.42.044-.46.028-.248.052-.46c.047-.432.1-.858.182-1.444C.688,8.17.819,7.336.851,7.214c.01-.04.028-.147.041-.235s.039-.222.055-.3.047-.216.064-.31c.114-.56.272-1.245.308-1.326.011-.024.045-.12.079-.214a3.728,3.728,0,0,1,1.093-1.6A4.418,4.418,0,0,1,4.22,2.388l.224-.052c.111-.025.28-.066.375-.09.34-.081.941-.2,1.294-.263.1-.017.259-.047.352-.064s.24-.043.322-.053l.331-.054c.477-.081,1.611-.224,2.375-.3.181-.017.427-.041.545-.054.468-.047,1.133-.1,1.743-.136.526-.033.957-.058,1.347-.077.643-.067,1.3-.123,1.962-.165l.744-.045L17.075.957C18.2.885,20.193.777,21.363.725,21.7.71,22.221.683,22.533.668S23.327.63,23.6.62s.765-.032,1.1-.047C26.275.5,30.032.375,32.562.309L34.369.262C35.922.221,38.126.174,40.146.142,44.512.07,46.894.04,50.14.019c5.4-.036,14.1-.019,18.819.035,2.438.029,6.847.1,8.435.132l1.7.035c.467.012,1.169.028,1.559.04l1.772.047c2.09.055,3.118.083,3.331.094.12.008.694.028,1.276.047,2.9.1,7.35.291,8.718.379l.957.055C97.835.947,98.36.977,98.622,1l1.134.076c.769.05,1.477.108,2.138.174.735.037,1.673.094,2.058.126l.514.04c.141.013.353.032.47.045l.535.054c.631.062.941.094,1.005.107.036.008.21.032.385.053.874.111,2.218.33,2.631.43l.289.062c.34.071.5.105.578.129l.342.085a4.45,4.45,0,0,1,1.639.734,4.247,4.247,0,0,1,.774.807c.073.111.141.212.15.224a5.6,5.6,0,0,1,.345.77c.015.047.034.1.045.129a5.718,5.718,0,0,1,.154.6c.023.1.062.278.085.385.167.759.361,1.874.466,2.673.024.176.048.347.054.377.015.067.084.631.139,1.142.023.212.047.408.053.438s.026.223.043.428.036.413.043.46.03.34.053.653.052.691.064.845.03.485.043.738.032.61.043.791c.1,1.6.1,5.686,0,7.241-.013.175-.034.61-.054.963s-.041.723-.054.824-.03.34-.043.535-.032.438-.045.545-.034.366-.051.577-.041.443-.054.514-.037.267-.053.438c-.034.346-.111,1-.129,1.1-.006.034-.03.2-.054.364-.107.749-.224,1.482-.244,1.53-.006.017-.025.118-.043.224-.068.417-.257,1.3-.357,1.675a4.657,4.657,0,0,1-.254.722,1.154,1.154,0,0,0-.051.113,1.454,1.454,0,0,1-.109.209.844.844,0,0,0-.075.133.732.732,0,0,1-.081.122c-.043.058-.094.13-.113.16a4.219,4.219,0,0,1-.467.5,2.357,2.357,0,0,1-.4.3.605.605,0,0,0-.094.069,5.935,5.935,0,0,1-.806.381l-.214.075c-.058.026-.378.107-.749.191-.164.038-.334.079-.374.09-.1.025-.719.15-1.188.236-.428.079-1.177.192-1.722.263-.148.019-.373.049-.5.069-.456.064-1.8.195-2.717.265l-.537.04c-.61.078-1.318.162-1.633.189l-.709.066c-.19.023-1.255.094-2.48.168-.546.034-1.106.07-1.24.079-.326.022-2.382.132-3.934.207-1.417.07-3.9.17-5.706.232-.489.017-1.234.043-1.665.06-1.51.057-5.969.172-9,.234-2.367.047-2.921.057-4.429.075-.879.012-2.105.027-2.729.038-2.488.039-7.339.058-12.2.058S47.808,36.428,45.285,36.389Z" transform="translate(3.216 3.752)" fill="#ed770c"/>
  <path id="Caminho_1011" data-name="Caminho 1011" d="M3.776.208A6.632,6.632,0,0,1,.576-.56V-2.384a6.079,6.079,0,0,0,2.912.88A2.588,2.588,0,0,0,5.032-1.9a1.265,1.265,0,0,0,.536-1.08,1.18,1.18,0,0,0-.208-.7,1.954,1.954,0,0,0-.728-.56A10.9,10.9,0,0,0,3.2-4.8,4.117,4.117,0,0,1,1.28-5.984,2.763,2.763,0,0,1,.656-7.808,2.948,2.948,0,0,1,1.136-9.5,3.178,3.178,0,0,1,2.5-10.608a4.948,4.948,0,0,1,2.064-.4,5.228,5.228,0,0,1,1.288.16,4.774,4.774,0,0,1,1.128.432v1.744a4.644,4.644,0,0,0-2.336-.64A2.52,2.52,0,0,0,3.2-8.96a1.15,1.15,0,0,0-.512,1.008,1.1,1.1,0,0,0,.472.928,6.658,6.658,0,0,0,1.7.768,4.8,4.8,0,0,1,2.12,1.248,2.79,2.79,0,0,1,.68,1.92,3,3,0,0,1-1.048,2.4A4.226,4.226,0,0,1,3.776.208Zm7.568,0A2.8,2.8,0,0,1,9.392-.456a2.246,2.246,0,0,1-.736-1.752A2.494,2.494,0,0,1,9.784-4.4a5.6,5.6,0,0,1,3.176-.768q.4,0,.7.016a1.694,1.694,0,0,0-1.92-1.76,4.013,4.013,0,0,0-2.368.784v-1.6a4.781,4.781,0,0,1,2.672-.784,3.483,3.483,0,0,1,2.6.92,3.6,3.6,0,0,1,.9,2.632V0H13.9l-.112-.96A2.51,2.51,0,0,1,12.776-.1,3.258,3.258,0,0,1,11.344.208Zm2.32-4.032q-.336-.016-.672-.016a3.721,3.721,0,0,0-1.816.36,1.142,1.142,0,0,0-.632,1.048,1.161,1.161,0,0,0,.368.888,1.372,1.372,0,0,0,.976.344,1.7,1.7,0,0,0,1.256-.528,1.757,1.757,0,0,0,.52-1.28ZM17.28,0V-8.3h1.984V0Zm.992-9.552a1.184,1.184,0,0,1-.848-.336,1.1,1.1,0,0,1-.352-.832,1.1,1.1,0,0,1,.352-.84,1.2,1.2,0,0,1,.848-.328,1.192,1.192,0,0,1,.856.328,1.11,1.11,0,0,1,.344.84,1.117,1.117,0,0,1-.344.832A1.176,1.176,0,0,1,18.272-9.552Zm6.96,9.76A2.92,2.92,0,0,1,23.824-.12a2.647,2.647,0,0,1-.992-.936L22.72,0H21.056V-11.52H23.04v4.176a2.586,2.586,0,0,1,.992-.864,3,3,0,0,1,1.36-.3,3.012,3.012,0,0,1,1.776.528,3.425,3.425,0,0,1,1.168,1.5,5.788,5.788,0,0,1,.416,2.3,5.816,5.816,0,0,1-.432,2.336A3.453,3.453,0,0,1,27.1-.328,3.246,3.246,0,0,1,25.232.208Zm-.368-1.632a1.6,1.6,0,0,0,1.384-.72,3.445,3.445,0,0,0,.5-2,3.484,3.484,0,0,0-.5-2.008,1.6,1.6,0,0,0-1.384-.728,1.58,1.58,0,0,0-1.376.72,3.455,3.455,0,0,0-.5,1.984,3.523,3.523,0,0,0,.5,2.016A1.576,1.576,0,0,0,24.864-1.424Zm7.6,1.632a2.8,2.8,0,0,1-1.952-.664,2.246,2.246,0,0,1-.736-1.752A2.494,2.494,0,0,1,30.9-4.4a5.6,5.6,0,0,1,3.176-.768q.4,0,.7.016a1.694,1.694,0,0,0-1.92-1.76,4.013,4.013,0,0,0-2.368.784v-1.6a4.781,4.781,0,0,1,2.672-.784,3.483,3.483,0,0,1,2.6.92,3.6,3.6,0,0,1,.9,2.632V0H35.024l-.112-.96A2.51,2.51,0,0,1,33.9-.1,3.258,3.258,0,0,1,32.464.208Zm2.32-4.032q-.336-.016-.672-.016a3.721,3.721,0,0,0-1.816.36,1.142,1.142,0,0,0-.632,1.048,1.161,1.161,0,0,0,.368.888,1.372,1.372,0,0,0,.976.344,1.7,1.7,0,0,0,1.256-.528,1.757,1.757,0,0,0,.52-1.28ZM41.12,0V-8.3h1.744l.1.912a2.637,2.637,0,0,1,2.256-1.12,2.494,2.494,0,0,1,1.336.36,2.4,2.4,0,0,1,.9,1.016A2.938,2.938,0,0,1,48.52-8.152,3,3,0,0,1,50-8.512a2.434,2.434,0,0,1,1.92.816A3.194,3.194,0,0,1,52.64-5.5V0H50.656V-5.184A1.9,1.9,0,0,0,50.3-6.416a1.19,1.19,0,0,0-.976-.432,1.347,1.347,0,0,0-1.056.448,1.735,1.735,0,0,0-.4,1.2V0H45.888V-5.184a1.936,1.936,0,0,0-.344-1.232,1.2,1.2,0,0,0-1-.432A1.329,1.329,0,0,0,43.5-6.4a1.735,1.735,0,0,0-.4,1.2V0ZM56.688.208a2.8,2.8,0,0,1-1.952-.664A2.246,2.246,0,0,1,54-2.208,2.494,2.494,0,0,1,55.128-4.4,5.6,5.6,0,0,1,58.3-5.168q.4,0,.7.016a1.694,1.694,0,0,0-1.92-1.76,4.013,4.013,0,0,0-2.368.784v-1.6a4.781,4.781,0,0,1,2.672-.784,3.483,3.483,0,0,1,2.6.92,3.6,3.6,0,0,1,.9,2.632V0H59.248l-.112-.96A2.51,2.51,0,0,1,58.12-.1,3.258,3.258,0,0,1,56.688.208Zm2.32-4.032q-.336-.016-.672-.016a3.721,3.721,0,0,0-1.816.36,1.142,1.142,0,0,0-.632,1.048,1.161,1.161,0,0,0,.368.888,1.372,1.372,0,0,0,.976.344,1.7,1.7,0,0,0,1.256-.528,1.757,1.757,0,0,0,.52-1.28ZM62.624,0V-8.3h1.984V0Zm.992-9.552a1.184,1.184,0,0,1-.848-.336,1.1,1.1,0,0,1-.352-.832,1.1,1.1,0,0,1,.352-.84,1.2,1.2,0,0,1,.848-.328,1.192,1.192,0,0,1,.856.328,1.11,1.11,0,0,1,.344.84,1.117,1.117,0,0,1-.344.832A1.176,1.176,0,0,1,63.616-9.552ZM68.64.208A5.282,5.282,0,0,1,66-.416V-2.048a4.381,4.381,0,0,0,2.432.7A2.065,2.065,0,0,0,69.56-1.6a.827.827,0,0,0,.392-.736.744.744,0,0,0-.344-.64A5.152,5.152,0,0,0,68.224-3.5a3.456,3.456,0,0,1-1.68-.928A2.217,2.217,0,0,1,66-5.968,2.171,2.171,0,0,1,66.424-7.3,2.79,2.79,0,0,1,67.6-8.192a4.424,4.424,0,0,1,1.744-.32,4.568,4.568,0,0,1,1.1.136,4.44,4.44,0,0,1,.984.36v1.584a4.038,4.038,0,0,0-2.032-.528,2.021,2.021,0,0,0-1.072.24.752.752,0,0,0-.384.672.71.71,0,0,0,.336.624,5.166,5.166,0,0,0,1.28.5,3.894,3.894,0,0,1,1.816.96,2.272,2.272,0,0,1,.568,1.616,2.247,2.247,0,0,1-.888,1.864A3.8,3.8,0,0,1,68.64.208Z" transform="translate(33.965 26.649)" fill="#fff"/>
  <path id="União_13" data-name="União 13" d="M5.063,11.227V7.264H1.1a1.1,1.1,0,0,1,0-2.2H5.063V1.1a1.1,1.1,0,0,1,2.2,0V5.063h3.963a1.1,1.1,0,0,1,0,2.2H7.264v3.963a1.1,1.1,0,0,1-2.2,0Z" transform="translate(13.059 15.649)" fill="#fff"/>
</svg>
