<svg id="Grupo_1558" data-name="Grupo 1558" xmlns="http://www.w3.org/2000/svg" width="188.22" height="67.016" viewBox="0 0 188.22 67.016">
  <path id="União_4" data-name="União 4" d="M74.139,66.909c-1.022-.017-3.03-.048-4.469-.069s-3.261-.052-4.061-.069c-5.338-.114-6.451-.143-7.543-.177l-3.6-.1c-3.643-.1-9.446-.3-10.85-.378-.383-.02-1.242-.059-1.914-.087-1.786-.076-4.631-.212-6.092-.291-2.541-.139-5.906-.34-6.44-.381-.221-.017-1.137-.083-2.031-.146-2.055-.14-3.76-.267-4.062-.309-.128-.017-.441-.049-.7-.073-.749-.066-2.043-.232-3.135-.391-1.607-.129-1.942-.161-2.271-.2-.2-.024-.691-.074-1.086-.118-1.1-.118-2.85-.346-3.274-.429-.115-.023-.375-.067-.577-.1-.539-.087-1.4-.241-1.839-.33-.768-.158-1.783-.386-1.943-.433-.067-.02-.345-.095-.613-.165a12.439,12.439,0,0,1-1.226-.351c-.038-.019-.132-.055-.209-.082a6.908,6.908,0,0,1-1.514-.8.186.186,0,0,0-.076-.059.542.542,0,0,1-.155-.11c-.066-.059-.168-.142-.22-.184a6.5,6.5,0,0,1-1.085-1.239c-.046-.075-.133-.217-.193-.315a6.589,6.589,0,0,1-.311-.61A11.336,11.336,0,0,1,1.775,55.8c-.1-.5-.234-1.279-.293-1.671-.032-.185-.077-.477-.105-.649-.13-.771-.249-1.613-.351-2.478C1,50.764.948,50.394.921,50.177.864,49.772.8,49.162.71,48.23c-.026-.292-.066-.674-.087-.85s-.06-.638-.087-1.023-.07-.845-.088-1.019C.415,45.056.353,44.163.273,42.8c-.018-.271-.046-.881-.067-1.357S.15,40.332.132,40.03c-.048-.748-.1-2.891-.125-5.291-.024-1.923.021-5.451.091-7.1.091-2.222.273-5.373.346-6.1.022-.2.063-.673.092-1.062s.063-.771.073-.846.047-.457.084-.846c.077-.795.164-1.577.3-2.655.137-1.113.351-2.646.4-2.871.017-.074.046-.271.067-.432s.063-.409.091-.55.077-.4.105-.571c.186-1.03.445-2.289.5-2.438.018-.044.074-.22.129-.393a6.937,6.937,0,0,1,1.79-2.938,6.945,6.945,0,0,1,2.83-1.55c.021,0,.185-.048.367-.095s.459-.121.613-.165c.556-.15,1.54-.374,2.118-.484.164-.032.423-.087.577-.118s.393-.078.527-.1.378-.067.543-.1c.78-.15,2.637-.413,3.887-.55.3-.032.7-.075.893-.1.767-.086,1.856-.185,2.853-.251.862-.06,1.567-.106,2.205-.142,1.052-.124,2.131-.226,3.212-.3.07,0,.614-.042,1.218-.082s1.52-.108,2.031-.146c1.845-.132,5.106-.33,7.021-.427.545-.028,1.4-.076,1.914-.1s1.3-.069,1.741-.088,1.252-.058,1.8-.087C43.017.923,49.167.69,53.31.569,54.3.541,55.631.5,56.268.482,58.81.406,62.419.319,65.725.26,72.873.129,76.773.073,82.088.035,90.929-.031,105.179,0,112.9.1c3.992.053,11.21.177,13.809.244.766.016,2.019.048,2.785.065s1.915.052,2.552.073,1.949.058,2.9.087c3.422.1,5.1.153,5.454.173.2.014,1.136.052,2.089.087,4.745.18,12.033.535,14.273.7q.781.052,1.566.1c1.845.114,2.7.17,3.134.208q.927.072,1.857.14c1.259.092,2.418.2,3.5.32,1.2.069,2.738.172,3.37.232.231.019.61.055.841.074s.577.059.77.083.588.067.875.1c1.033.114,1.541.173,1.646.2.059.015.343.059.63.1,1.432.2,3.631.606,4.307.791.158.039.315.077.473.114.557.13.816.194.946.236.186.053.373.106.56.157a6.927,6.927,0,0,1,2.683,1.349,7.474,7.474,0,0,1,1.267,1.484c.119.2.231.389.245.413A11,11,0,0,1,186,9.036c.024.087.056.193.074.236.038.091.154.6.252,1.1.038.193.1.511.14.708.273,1.4.591,3.445.763,4.916.039.323.078.638.088.693.025.122.137,1.16.228,2.1.037.389.077.751.087.806s.043.41.071.787.059.759.07.846.049.626.088,1.2.084,1.27.105,1.553.049.893.071,1.357.052,1.121.07,1.455c.157,2.95.157,10.455,0,13.314-.021.322-.056,1.121-.088,1.77s-.066,1.329-.088,1.514-.049.625-.07.983-.053.806-.074,1-.055.673-.084,1.062-.067.814-.088.945-.06.491-.087.806c-.057.637-.182,1.844-.211,2.026-.01.063-.049.366-.088.668-.175,1.377-.368,2.726-.4,2.812-.01.031-.041.216-.069.413-.112.767-.42,2.392-.585,3.079a9.3,9.3,0,0,1-.416,1.327c-.014.019-.049.117-.084.208a2.8,2.8,0,0,1-.179.385,1.6,1.6,0,0,0-.122.245,1.4,1.4,0,0,1-.133.224c-.071.106-.155.24-.186.294a7.456,7.456,0,0,1-.764.92,3.947,3.947,0,0,1-.647.554.985.985,0,0,0-.154.126,9.345,9.345,0,0,1-1.32.7q-.176.067-.35.138a12.737,12.737,0,0,1-1.226.351c-.269.07-.546.145-.612.165-.162.047-1.177.275-1.945.433-.7.145-1.926.354-2.819.483-.242.036-.61.091-.823.126-.746.117-2.948.358-4.448.487l-.878.073c-1,.143-2.159.3-2.673.348-.387.039-.775.08-1.161.121-.312.042-2.054.173-4.06.309-.895.062-1.811.128-2.031.146-.534.041-3.9.243-6.441.381-2.32.128-6.383.313-9.341.427-.8.031-2.019.079-2.726.111-2.471.1-9.773.316-14.738.43-3.876.087-4.782.1-7.252.139-1.439.021-3.446.049-4.468.069-4.073.071-12.016.107-19.973.107S78.27,66.98,74.139,66.909Z" transform="translate(0 0)" fill="#fff"/>
  <path id="União_3" data-name="União 3" d="M69.9,56.171c-.963-.015-2.856-.04-4.213-.058s-3.075-.044-3.829-.058c-5.033-.1-6.083-.12-7.112-.149l-3.391-.087c-3.436-.087-8.907-.256-10.23-.317-.361-.017-1.171-.05-1.805-.073-1.684-.064-4.366-.178-5.744-.245-2.4-.116-5.569-.286-6.072-.32-.208-.015-1.072-.07-1.914-.122-1.938-.117-3.545-.224-3.83-.259-.121-.015-.416-.041-.657-.062-.706-.056-1.926-.2-2.956-.328-1.515-.108-1.831-.135-2.142-.167-.191-.02-.651-.062-1.024-.1-1.036-.1-2.688-.291-3.087-.36-.109-.02-.354-.056-.544-.082-.508-.073-1.318-.2-1.734-.277-.724-.133-1.681-.324-1.832-.364-.063-.017-.324-.08-.578-.139-.584-.133-1.069-.254-1.156-.294-.036-.016-.125-.046-.2-.069a6.818,6.818,0,0,1-1.427-.673.175.175,0,0,0-.072-.05.517.517,0,0,1-.146-.092c-.063-.05-.158-.119-.208-.155a5.7,5.7,0,0,1-1.023-1.04c-.043-.063-.126-.182-.182-.264a5.444,5.444,0,0,1-.294-.512,8.747,8.747,0,0,1-.829-2.608c-.092-.416-.221-1.074-.277-1.4-.03-.156-.073-.4-.1-.545-.122-.648-.234-1.354-.33-2.08-.026-.2-.073-.512-.1-.694-.053-.34-.115-.852-.2-1.634-.025-.245-.062-.565-.082-.713s-.057-.536-.082-.859-.066-.709-.083-.855c-.03-.237-.089-.987-.165-2.129-.017-.228-.043-.74-.063-1.139s-.053-.934-.07-1.188c-.045-.628-.095-2.427-.118-4.441-.023-1.614.02-4.577.086-5.96.086-1.866.257-4.511.327-5.118.02-.165.06-.565.086-.891s.059-.648.068-.71.044-.383.08-.71c.073-.667.155-1.324.281-2.229.129-.934.33-2.222.38-2.411.016-.062.043-.228.063-.363s.06-.343.086-.462.073-.334.1-.479c.175-.865.419-1.921.475-2.047.017-.037.07-.185.122-.33A5.755,5.755,0,0,1,3.846,4.988a6.819,6.819,0,0,1,2.668-1.3c.02,0,.175-.04.346-.08s.433-.1.578-.139c.525-.126,1.453-.314,2-.406.155-.027.4-.073.544-.1s.371-.066.5-.082.356-.056.511-.083c.736-.126,2.487-.346,3.666-.462.279-.027.66-.063.842-.083.723-.072,1.749-.155,2.69-.21.812-.05,1.477-.089,2.079-.119.992-.1,2.009-.19,3.029-.254.066,0,.579-.035,1.148-.069s1.433-.091,1.915-.122c1.74-.111,4.813-.277,6.619-.358.514-.023,1.324-.064,1.805-.087S36.007.973,36.423.958s1.18-.049,1.7-.073C40.559.775,46.357.58,50.263.478c.93-.024,2.188-.056,2.789-.073,2.4-.064,5.8-.137,8.916-.186C68.709.108,72.386.061,77.4.029,85.733-.026,99.169,0,106.446.084c3.764.044,10.569.149,13.02.2.722.014,1.9.04,2.626.055s1.8.044,2.406.062,1.837.049,2.736.073c3.227.085,4.813.128,5.142.145.186.012,1.071.044,1.969.073,4.474.151,11.346.449,13.458.585l1.477.085c1.74.1,2.55.143,2.955.174q.874.06,1.751.117c1.187.077,2.28.166,3.3.269,1.134.058,2.582.145,3.178.2l.793.062c.217.021.544.05.726.069s.555.056.826.083c.973.1,1.453.145,1.552.165.056.013.323.05.595.082,1.35.172,3.423.509,4.061.664.149.032.3.065.446.1.525.11.77.163.892.2.175.044.352.089.528.132a6.869,6.869,0,0,1,2.53,1.133,6.555,6.555,0,0,1,1.195,1.246c.112.171.218.327.231.346a8.647,8.647,0,0,1,.532,1.188c.023.073.053.162.069.2a8.823,8.823,0,0,1,.238.925c.036.162.1.429.132.595.258,1.172.558,2.892.72,4.127.037.271.074.536.083.582.023.1.129.973.215,1.763.036.327.073.63.082.677s.04.344.067.66.056.637.066.71.046.525.082,1.008.08,1.066.1,1.3.046.749.067,1.139.049.941.066,1.222c.148,2.477.148,8.777,0,11.177-.02.27-.053.941-.083,1.486s-.063,1.116-.083,1.271-.046.524-.066.825-.05.677-.069.842-.052.565-.079.891-.063.683-.083.793-.057.412-.082.677c-.053.535-.172,1.548-.2,1.7-.009.053-.046.307-.083.561-.165,1.156-.347,2.288-.377,2.361-.009.027-.039.181-.066.346-.105.644-.4,2.008-.551,2.585a7.189,7.189,0,0,1-.393,1.114,1.778,1.778,0,0,0-.079.174,2.245,2.245,0,0,1-.169.323,1.3,1.3,0,0,0-.115.205,1.13,1.13,0,0,1-.126.188c-.066.089-.146.2-.175.247a6.511,6.511,0,0,1-.72.772,3.638,3.638,0,0,1-.611.465.936.936,0,0,0-.146.106,9.161,9.161,0,0,1-1.244.588q-.166.057-.331.115c-.089.04-.584.165-1.156.294-.254.059-.515.122-.577.139-.152.039-1.11.231-1.833.364-.66.121-1.816.3-2.658.405-.228.03-.575.076-.776.106-.7.1-2.78.3-4.193.409l-.829.061c-.942.12-2.035.25-2.521.292q-.548.049-1.094.1c-.294.035-1.936.145-3.829.259-.843.052-1.707.108-1.914.122-.5.034-3.677.2-6.073.32-2.188.108-6.018.263-8.807.358-.755.027-1.9.067-2.571.093-2.33.087-9.214.265-13.9.361-3.654.073-4.508.087-6.837.116-1.357.018-3.25.041-4.213.058-3.84.06-11.329.09-18.832.09S73.8,56.231,69.9,56.171Z" transform="translate(4.964 5.791)" fill="#0e295b"/>
  <path id="Caminho_945" data-name="Caminho 945" d="M5.9.325a10.363,10.363,0,0,1-5-1.2v-2.85A9.5,9.5,0,0,0,5.45-2.35a4.044,4.044,0,0,0,2.412-.613A1.976,1.976,0,0,0,8.7-4.65a1.843,1.843,0,0,0-.325-1.088,3.053,3.053,0,0,0-1.137-.875A17.032,17.032,0,0,0,5-7.5,6.432,6.432,0,0,1,2-9.35a4.317,4.317,0,0,1-.975-2.85,4.606,4.606,0,0,1,.75-2.637A4.965,4.965,0,0,1,3.9-16.575,7.732,7.732,0,0,1,7.125-17.2a8.169,8.169,0,0,1,2.012.25,7.459,7.459,0,0,1,1.763.675v2.725a7.256,7.256,0,0,0-3.65-1A3.938,3.938,0,0,0,5-14a1.8,1.8,0,0,0-.8,1.575,1.723,1.723,0,0,0,.737,1.45A10.4,10.4,0,0,0,7.6-9.775a7.507,7.507,0,0,1,3.313,1.95,4.36,4.36,0,0,1,1.063,3,4.684,4.684,0,0,1-1.637,3.75A6.6,6.6,0,0,1,5.9.325Zm11.825,0a4.38,4.38,0,0,1-3.05-1.038,3.51,3.51,0,0,1-1.15-2.738,3.9,3.9,0,0,1,1.763-3.425,8.753,8.753,0,0,1,4.962-1.2q.625,0,1.1.025a2.646,2.646,0,0,0-3-2.75,6.271,6.271,0,0,0-3.7,1.225v-2.5A7.47,7.47,0,0,1,18.825-13.3a5.442,5.442,0,0,1,4.063,1.437A5.624,5.624,0,0,1,24.3-7.75V0H21.725L21.55-1.5A3.921,3.921,0,0,1,19.962-.163,5.09,5.09,0,0,1,17.725.325Zm3.625-6.3Q20.825-6,20.3-6a5.814,5.814,0,0,0-2.837.562A1.785,1.785,0,0,0,16.475-3.8a1.814,1.814,0,0,0,.575,1.388,2.143,2.143,0,0,0,1.525.538A2.654,2.654,0,0,0,20.538-2.7a2.745,2.745,0,0,0,.813-2ZM27,0V-12.975h3.1V0Zm1.55-14.925a1.85,1.85,0,0,1-1.325-.525,1.725,1.725,0,0,1-.55-1.3,1.714,1.714,0,0,1,.55-1.312,1.875,1.875,0,0,1,1.325-.513,1.863,1.863,0,0,1,1.337.513,1.734,1.734,0,0,1,.538,1.313,1.745,1.745,0,0,1-.538,1.3A1.838,1.838,0,0,1,28.55-14.925ZM39.425.325a4.562,4.562,0,0,1-2.2-.513,4.136,4.136,0,0,1-1.55-1.462L35.5,0H32.9V-18H36v6.525a4.041,4.041,0,0,1,1.55-1.35,4.685,4.685,0,0,1,2.125-.475,4.706,4.706,0,0,1,2.775.825,5.352,5.352,0,0,1,1.825,2.337,9.044,9.044,0,0,1,.65,3.588A9.087,9.087,0,0,1,44.25-2.9,5.4,5.4,0,0,1,42.338-.512,5.071,5.071,0,0,1,39.425.325Zm-.575-2.55A2.5,2.5,0,0,0,41.013-3.35,5.382,5.382,0,0,0,41.8-6.475a5.444,5.444,0,0,0-.788-3.138A2.492,2.492,0,0,0,38.85-10.75,2.468,2.468,0,0,0,36.7-9.625a5.4,5.4,0,0,0-.775,3.1,5.505,5.505,0,0,0,.788,3.15A2.462,2.462,0,0,0,38.85-2.225ZM50.725.325a4.38,4.38,0,0,1-3.05-1.038,3.51,3.51,0,0,1-1.15-2.738,3.9,3.9,0,0,1,1.763-3.425,8.753,8.753,0,0,1,4.962-1.2q.625,0,1.1.025a2.646,2.646,0,0,0-3-2.75,6.271,6.271,0,0,0-3.7,1.225v-2.5A7.47,7.47,0,0,1,51.825-13.3a5.442,5.442,0,0,1,4.063,1.437A5.624,5.624,0,0,1,57.3-7.75V0H54.725L54.55-1.5A3.921,3.921,0,0,1,52.963-.163,5.09,5.09,0,0,1,50.725.325Zm3.625-6.3Q53.825-6,53.3-6a5.814,5.814,0,0,0-2.838.562A1.785,1.785,0,0,0,49.475-3.8a1.814,1.814,0,0,0,.575,1.388,2.143,2.143,0,0,0,1.525.538A2.654,2.654,0,0,0,53.538-2.7a2.745,2.745,0,0,0,.813-2ZM64.25,0V-12.975h2.725l.15,1.425A4.12,4.12,0,0,1,70.65-13.3a3.9,3.9,0,0,1,2.088.562A3.743,3.743,0,0,1,74.15-11.15a4.59,4.59,0,0,1,1.662-1.588,4.681,4.681,0,0,1,2.313-.562,3.8,3.8,0,0,1,3,1.275A4.99,4.99,0,0,1,82.25-8.6V0h-3.1V-8.1a2.976,2.976,0,0,0-.55-1.925,1.859,1.859,0,0,0-1.525-.675,2.105,2.105,0,0,0-1.65.7A2.711,2.711,0,0,0,74.8-8.125V0H71.7V-8.1a3.025,3.025,0,0,0-.537-1.925A1.879,1.879,0,0,0,69.6-10.7a2.077,2.077,0,0,0-1.625.7,2.711,2.711,0,0,0-.625,1.875V0ZM88.575.325a4.38,4.38,0,0,1-3.05-1.038,3.51,3.51,0,0,1-1.15-2.738,3.9,3.9,0,0,1,1.763-3.425,8.753,8.753,0,0,1,4.963-1.2q.625,0,1.1.025a2.646,2.646,0,0,0-3-2.75,6.271,6.271,0,0,0-3.7,1.225v-2.5A7.47,7.47,0,0,1,89.675-13.3a5.442,5.442,0,0,1,4.063,1.437A5.624,5.624,0,0,1,95.15-7.75V0H92.575L92.4-1.5A3.921,3.921,0,0,1,90.813-.163,5.09,5.09,0,0,1,88.575.325Zm3.625-6.3Q91.675-6,91.15-6a5.814,5.814,0,0,0-2.838.562A1.785,1.785,0,0,0,87.325-3.8,1.814,1.814,0,0,0,87.9-2.413a2.143,2.143,0,0,0,1.525.538A2.654,2.654,0,0,0,91.388-2.7a2.745,2.745,0,0,0,.813-2ZM97.85,0V-12.975h3.1V0ZM99.4-14.925a1.85,1.85,0,0,1-1.325-.525,1.725,1.725,0,0,1-.55-1.3,1.714,1.714,0,0,1,.55-1.312,1.875,1.875,0,0,1,1.325-.513,1.863,1.863,0,0,1,1.338.513,1.734,1.734,0,0,1,.537,1.313,1.745,1.745,0,0,1-.537,1.3A1.838,1.838,0,0,1,99.4-14.925ZM107.25.325a8.254,8.254,0,0,1-4.125-.975V-3.2a6.846,6.846,0,0,0,3.8,1.1,3.227,3.227,0,0,0,1.763-.4,1.292,1.292,0,0,0,.612-1.15,1.163,1.163,0,0,0-.537-1,8.05,8.05,0,0,0-2.162-.825,5.4,5.4,0,0,1-2.625-1.45,3.465,3.465,0,0,1-.85-2.4,3.393,3.393,0,0,1,.662-2.087,4.36,4.36,0,0,1,1.838-1.387,6.913,6.913,0,0,1,2.725-.5,7.138,7.138,0,0,1,1.713.212,6.938,6.938,0,0,1,1.537.562v2.475a6.309,6.309,0,0,0-3.175-.825,3.158,3.158,0,0,0-1.675.375,1.175,1.175,0,0,0-.6,1.05,1.109,1.109,0,0,0,.525.975,8.072,8.072,0,0,0,2,.775,6.084,6.084,0,0,1,2.838,1.5,3.55,3.55,0,0,1,.888,2.525,3.511,3.511,0,0,1-1.388,2.912A5.942,5.942,0,0,1,107.25.325Z" transform="translate(46.168 40.524)" fill="#fff"/>
  <path id="União_13" data-name="União 13" d="M7.815,17.33V11.213H1.7a1.7,1.7,0,1,1,0-3.4H7.815V1.7a1.7,1.7,0,0,1,3.4,0V7.816H17.33a1.7,1.7,0,1,1,0,3.4H11.213V17.33a1.7,1.7,0,0,1-3.4,0Z" transform="translate(18.615 24.408)" fill="#fff"/>
</svg>
