<svg xmlns="http://www.w3.org/2000/svg" xmlns:xlink="http://www.w3.org/1999/xlink" width="30.984" height="70.937" viewBox="0 0 30.984 70.937">
  <defs>
    <clipPath id="clip-path">
      <path id="Caminho_511" data-name="Caminho 511" d="M0,44.008H30.984V-26.929H0Z" transform="translate(0 26.929)" fill="none"/>
    </clipPath>
  </defs>
  <g id="Grupo_857" data-name="Grupo 857" transform="translate(0 26.929)">
    <g id="Grupo_856" data-name="Grupo 856" transform="translate(0 -26.929)" clip-path="url(#clip-path)">
      <g id="Grupo_851" data-name="Grupo 851" transform="translate(14.36 52.269)">
        <path id="Caminho_506" data-name="Caminho 506" d="M.7,11.582a1.164,1.164,0,0,1-1.125-1.2V-5.886A1.164,1.164,0,0,1,.7-7.087a1.164,1.164,0,0,1,1.125,1.2V10.346a1.252,1.252,0,0,1-.319.872,1.092,1.092,0,0,1-.806.364" transform="translate(0.427 7.087)" fill="#0e365d"/>
      </g>
      <g id="Grupo_852" data-name="Grupo 852" transform="translate(7.608 62.211)">
        <path id="Caminho_507" data-name="Caminho 507" d="M4.886,5.414a1.088,1.088,0,0,1-.751-.306L-2.613-1.2a1.27,1.27,0,0,1-.092-1.7,1.079,1.079,0,0,1,1.594-.1L5.637,3.306A1.252,1.252,0,0,1,5.748,5a1.11,1.11,0,0,1-.861.416" transform="translate(2.99 3.313)" fill="#0e365d"/>
      </g>
      <g id="Grupo_853" data-name="Grupo 853" transform="translate(14.349 62.211)">
        <path id="Caminho_508" data-name="Caminho 508" d="M.7,5.414A1.133,1.133,0,0,1-.357,4.639,1.257,1.257,0,0,1-.046,3.306L6.7-3.008a1.079,1.079,0,0,1,1.594.1A1.27,1.27,0,0,1,8.2-1.2L1.455,5.108A1.072,1.072,0,0,1,.7,5.414" transform="translate(0.431 3.313)" fill="#0e365b"/>
      </g>
      <g id="Grupo_854" data-name="Grupo 854" transform="translate(0.001 -0.001)">
        <path id="Caminho_509" data-name="Caminho 509" d="M7.029,1.492c-5.013.005-9.078,4.344-9.08,9.7V34.47c.008,5.353,4.067,9.691,9.08,9.7h8.3c5.023.008,9.1-4.336,9.1-9.7V11.233a10.051,10.051,0,0,0-2.658-6.891,8.8,8.8,0,0,0-6.446-2.85Zm8.3,45.082h-8.3C.775,46.566-4.293,41.15-4.3,34.47V11.233C-4.314,4.537.759-.9,7.029-.913h8.3C21.593-.921,26.677,4.5,26.683,11.194V34.47c-.005,6.694-5.089,12.112-11.353,12.1" transform="translate(4.301 0.913)" fill="#0e365d"/>
      </g>
      <g id="Grupo_855" data-name="Grupo 855" transform="translate(14.36 11.52)">
        <path id="Caminho_510" data-name="Caminho 510" d="M.7,5.234a1.164,1.164,0,0,1-1.125-1.2V-2A1.167,1.167,0,0,1,.7-3.2,1.167,1.167,0,0,1,1.823-2V4.033A1.164,1.164,0,0,1,.7,5.234" transform="translate(0.427 3.203)" fill="#0e365d"/>
      </g>
    </g>
  </g>
</svg>
