<svg width="65" height="65" xmlns="http://www.w3.org/2000/svg" xmlns:xlink="http://www.w3.org/1999/xlink" xml:space="preserve" overflow="hidden"><defs><clipPath id="clip0"><rect x="600" y="93" width="65" height="65"/></clipPath></defs><g clip-path="url(#clip0)" transform="translate(-600 -93)"><path d="M665 125.5C665 143.449 650.449 158 632.5 158 614.551 158 600 143.449 600 125.5 600 107.551 614.551 93 632.5 93 650.449 93 665 107.551 665 125.5Z" fill="#FFFFFF"/><path d="M646.303 123.547C647.38 124.414 647.559 125.988 646.692 127.075 646.582 127.214 646.453 127.344 646.303 127.463L628.812 141.526C627.736 142.393 626.151 142.223 625.284 141.147 624.926 140.699 624.736 140.15 624.726 139.582L624.726 111.458C624.726 110.072 625.852 108.946 627.238 108.946 627.806 108.946 628.364 109.145 628.812 109.504L646.303 123.567Z" fill="#EE780D"/></g></svg>